<svg width="209" height="138" viewBox="0 0 209 138" fill="none" xmlns="http://www.w3.org/2000/svg">
<rect width="208.891" height="137.679" fill="black"/>
<path d="M96.5918 96.3177C96.5918 96.6852 96.5918 97.1446 96.5918 97.6959C96.5918 98.1553 96.5 98.4768 96.3162 98.6606C96.6837 99.7631 96.9134 100.866 97.0053 101.968C97.0972 102.979 97.3728 103.76 97.8322 104.311C97.4647 104.679 97.3728 105.046 97.5566 105.414C97.7403 105.781 97.8322 106.195 97.8322 106.654V108.446C97.9241 108.446 98.0619 108.859 98.2456 109.686C98.5213 110.421 98.6591 110.88 98.6591 111.064C98.6591 111.891 98.6591 112.672 98.6591 113.407C98.751 114.142 98.9347 114.877 99.2103 115.612C99.3941 116.071 99.6238 116.393 99.8994 116.577C100.175 116.669 100.359 116.852 100.451 117.128C100.634 117.863 100.726 118.552 100.726 119.195C100.818 119.838 100.956 120.527 101.14 121.262C101.967 121.538 102.702 121.492 103.345 121.125C104.08 120.757 104.815 120.527 105.55 120.436C106.009 120.436 106.561 120.573 107.204 120.849C107.847 121.125 108.306 120.987 108.582 120.436C109.96 121.171 111.108 121.952 112.027 122.778C111.935 123.238 111.752 123.605 111.476 123.881C111.292 124.248 111.108 124.662 110.925 125.121C110.282 125.121 109.684 125.213 109.133 125.397C108.582 125.581 107.985 125.673 107.341 125.673C106.055 125.489 105.136 125.443 104.585 125.535C104.126 125.718 103.666 125.856 103.207 125.948C101.921 126.04 100.634 126.086 99.3482 126.086C98.0619 126.178 96.7756 126.132 95.4893 125.948C95.0299 125.856 94.6165 125.718 94.249 125.535C93.8815 125.351 93.468 125.213 93.0086 125.121C90.8036 124.846 88.7363 125.121 86.8069 125.948C86.4394 126.132 85.7962 126.224 84.8775 126.224C84.0506 126.316 83.1777 126.408 82.259 126.499C81.4321 126.591 80.6511 126.729 79.9161 126.913C79.1811 127.097 78.7676 127.372 78.6757 127.74C77.4813 127.556 76.7923 127.556 76.6085 127.74C76.4248 127.924 76.1491 128.061 75.7816 128.153C75.0466 128.337 74.4034 128.475 73.8522 128.567C73.3009 128.659 72.6578 128.796 71.9228 128.98C71.1877 129.164 70.5905 129.44 70.1311 129.807C69.7636 130.175 69.1664 130.22 68.3395 129.945C67.5126 129.761 67.0533 129.256 66.9614 128.429C66.9614 127.602 67.0992 126.821 67.3748 126.086C68.5692 125.535 69.8096 125.121 71.0959 124.846C72.474 124.57 73.7603 124.157 74.9547 123.605C75.1385 122.319 75.0925 121.033 74.8169 119.746C74.6331 118.46 74.5413 117.174 74.5413 115.888C74.5413 115.52 74.5872 115.199 74.6791 114.923C74.771 114.647 74.8169 114.372 74.8169 114.096C74.8169 112.534 74.771 111.018 74.6791 109.548C74.6791 107.986 74.725 106.424 74.8169 104.862C74.9088 103.852 74.8628 103.254 74.6791 103.071C74.5872 102.795 74.5413 102.519 74.5413 102.244C74.725 101.233 74.771 100.636 74.6791 100.452C74.5872 100.177 74.5413 99.9469 74.5413 99.7631C74.3575 98.1093 74.3575 97.1446 74.5413 96.869C74.8169 96.5015 74.9547 95.9962 74.9547 95.353C75.0466 94.9855 75.0466 94.6639 74.9547 94.3883C74.8628 94.1127 74.8169 93.837 74.8169 93.5614C74.8169 91.2645 74.9547 89.0135 75.2303 86.8084C75.506 84.5115 75.6897 82.2145 75.7816 79.9176C75.7816 79.2745 75.7357 78.6773 75.6438 78.126C75.6438 77.4829 75.6897 76.7938 75.7816 76.0588C75.8735 75.4156 76.0113 74.8184 76.1951 74.2672C76.3788 73.7159 76.5166 73.1187 76.6085 72.4755C76.6085 72.0162 76.5626 71.5108 76.4707 70.9596C76.3788 70.4083 76.4707 69.903 76.7463 69.4436C76.3788 68.8923 76.3329 68.2492 76.6085 67.5142C76.8841 66.6873 76.7923 66.0441 76.3329 65.5847C76.5166 65.3091 76.6085 64.9875 76.6085 64.62C76.7004 64.2525 76.8382 63.9769 77.022 63.7931C76.8382 62.7825 76.8382 61.8637 77.022 61.0368C77.2057 60.2099 77.2976 59.3371 77.2976 58.4183C77.2057 57.4076 77.2057 56.7645 77.2976 56.4889C77.4813 56.2132 77.5732 55.8917 77.5732 55.5242C77.5732 55.1567 77.5273 54.8351 77.4354 54.5594C77.3435 54.1919 77.2976 53.8244 77.2976 53.4569C77.2976 52.63 77.3435 51.8031 77.4354 50.9762C77.6192 50.1493 77.757 49.2765 77.8488 48.3577C77.8488 47.8983 77.8029 47.393 77.711 46.8417C77.711 46.2905 77.757 45.7852 77.8488 45.3258C77.9407 44.407 78.0785 43.5342 78.2623 42.7073C78.4461 41.8804 78.5839 41.0075 78.6757 40.0888C78.7676 38.7106 78.7676 37.6999 78.6757 37.0568C78.5839 36.4137 78.492 35.7246 78.4001 34.9896C78.3082 34.7139 78.2623 34.3924 78.2623 34.0249C78.3542 33.6573 78.4001 33.2898 78.4001 32.9223C78.1245 31.2685 77.9867 29.8904 77.9867 28.7878C78.0785 27.5934 77.9407 26.399 77.5732 25.2046C77.757 24.4696 77.8029 23.9643 77.711 23.6886C77.6192 23.3211 77.3895 22.8158 77.022 22.1727C76.6544 22.0808 76.0113 22.0808 75.0925 22.1727C74.2656 22.2645 73.3928 22.4024 72.474 22.5861C71.5552 22.678 70.7284 22.7699 69.9933 22.8617C69.2583 22.9536 68.7989 22.9996 68.6152 22.9996C67.6045 22.6321 67.0992 21.943 67.0992 20.9323C67.0992 20.4729 67.1911 20.1054 67.3748 19.8298C67.5586 19.5542 67.6964 19.2326 67.7883 18.8651C68.2477 18.8651 68.6152 18.8191 68.8908 18.7273C69.2583 18.5435 69.6718 18.4057 70.1311 18.3138C71.0499 18.3138 71.5552 18.2679 71.6471 18.176C71.8309 17.9922 72.0146 17.8544 72.1984 17.7626C72.474 17.7626 72.7037 17.8085 72.8875 17.9004C73.1631 17.9922 73.4387 18.0382 73.7144 18.0382C74.1738 18.0382 74.5872 17.9922 74.9547 17.9004C75.3222 17.8085 75.6897 17.7166 76.0572 17.6247C76.5166 18.0841 77.2057 18.2219 78.1245 18.0382C79.1351 17.7626 79.962 17.6247 80.6052 17.6247C81.0646 17.6247 81.6618 17.6247 82.3968 17.6247C83.2237 17.6247 84.0506 17.6707 84.8775 17.7626C85.7962 17.8544 86.6231 17.9922 87.3582 18.176C88.0932 18.3598 88.5985 18.5895 88.8741 18.8651C89.4254 18.5895 90.0226 18.4516 90.6657 18.4516C91.4008 18.3598 92.0898 18.2219 92.733 18.0382C92.9167 18.4057 93.1464 18.5895 93.4221 18.5895C93.6977 18.4976 93.9733 18.4976 94.249 18.5895C94.7084 18.7732 95.1218 18.957 95.4893 19.1407C95.8568 19.3245 96.3162 19.4623 96.8675 19.5542C97.6944 19.7379 98.2456 19.7839 98.5213 19.692C98.7969 19.6001 99.0725 19.5542 99.3482 19.5542C99.9913 19.7379 100.589 20.0136 101.14 20.3811C101.783 20.6567 102.38 20.9323 102.931 21.208C103.391 21.3917 103.758 21.4836 104.034 21.4836C104.401 21.3917 104.815 21.3458 105.274 21.3458C106.377 21.3458 107.112 21.5295 107.479 21.897C107.939 22.2645 108.398 22.5402 108.857 22.7239C109.501 22.9077 110.144 22.9996 110.787 22.9996C111.43 22.9077 111.981 23.1374 112.441 23.6886C112.808 23.7805 113.084 23.7346 113.268 23.5508C113.451 23.3671 113.727 23.3211 114.094 23.413C114.278 23.6886 114.829 24.0102 115.748 24.3777C116.759 24.7452 117.816 25.1587 118.918 25.6181C120.021 25.9856 121.031 26.399 121.95 26.8584C122.961 27.3178 123.558 27.7313 123.742 28.0988C125.028 28.0069 125.993 28.2366 126.636 28.7878C127.279 29.3391 128.106 29.7066 129.116 29.8904C129.943 31.1767 130.862 32.3711 131.873 33.4736C132.975 34.4842 133.94 35.5868 134.767 36.7812C134.951 36.9649 135.088 37.1946 135.18 37.4703C135.272 37.7459 135.41 37.9756 135.594 38.1593C136.788 39.17 137.477 40.0428 137.661 40.7778C137.845 41.421 138.258 41.8804 138.901 42.156C139.085 43.1667 139.453 43.9476 140.004 44.4989C140.647 45.4176 140.923 45.9689 140.831 46.1527C140.739 46.2445 140.693 46.3824 140.693 46.5661C141.244 47.4849 141.474 48.128 141.382 48.4955C141.29 48.8631 141.336 49.2306 141.52 49.5981C141.704 50.3331 141.933 50.9303 142.209 51.3897C142.576 51.8491 142.668 52.5381 142.485 53.4569C142.301 53.9163 142.255 54.5594 142.347 55.3863C142.439 56.1214 142.531 56.9023 142.622 57.7292C142.714 58.5561 142.76 59.3371 142.76 60.0721C142.76 60.7152 142.668 61.0827 142.485 61.1746C142.576 61.4503 142.622 61.7718 142.622 62.1393C142.714 62.415 142.944 62.5987 143.311 62.6906C142.944 63.4256 142.76 64.2525 142.76 65.1713C142.76 65.9982 142.852 66.8251 143.036 67.652C142.301 68.387 142.025 69.3058 142.209 70.4083C142.117 70.5921 141.887 71.0974 141.52 71.9243C141.152 72.7512 140.739 73.7159 140.28 74.8184C139.912 75.8291 139.545 76.7938 139.177 77.7126C138.809 78.5394 138.626 79.0448 138.626 79.2285C138.166 79.3204 137.845 79.596 137.661 80.0554C137.477 80.5148 137.294 80.9742 137.11 81.4336C136.926 81.4336 136.65 81.6173 136.283 81.9849C136.007 82.2605 135.686 82.628 135.318 83.0874C134.951 83.4549 134.629 83.8683 134.353 84.3277C134.078 84.6952 133.894 84.9249 133.802 85.0168C133.251 85.2924 132.7 85.5681 132.148 85.8437C131.597 86.0275 131.184 86.4409 130.908 87.084C130.541 87.084 130.173 87.2219 129.806 87.4975C129.438 87.6812 129.116 87.9109 128.841 88.1866C128.565 88.4622 128.29 88.6919 128.014 88.8757C127.738 89.0594 127.463 89.0594 127.187 88.8757C126.176 89.335 125.487 89.5647 125.12 89.5647C124.844 89.4729 124.477 89.5188 124.017 89.7026C123.374 89.8863 122.777 90.1619 122.226 90.5294C121.674 90.8051 121.077 91.0348 120.434 91.2185C120.158 91.3104 119.837 91.3563 119.469 91.3563C119.194 91.2645 118.918 91.2185 118.642 91.2185C118.367 91.3104 118.091 91.4023 117.816 91.4942C117.632 91.586 117.402 91.6779 117.126 91.7698C116.943 91.6779 116.621 91.632 116.162 91.632C115.702 91.632 115.197 91.6779 114.646 91.7698C114.094 91.7698 113.589 91.8157 113.13 91.9076C112.67 91.9995 112.303 92.0454 112.027 92.0454C111.66 92.0454 111.338 92.1373 111.063 92.3211C110.787 92.4129 110.511 92.4589 110.236 92.4589C109.96 92.5508 109.684 92.5508 109.409 92.4589C109.133 92.367 108.857 92.3211 108.582 92.3211C107.939 92.2292 107.341 92.3211 106.79 92.5967C106.239 92.7804 105.642 92.9183 104.999 93.0101C104.447 93.102 103.896 93.102 103.345 93.0101C102.794 92.9183 102.242 93.0101 101.691 93.2858C101.232 93.0101 100.589 92.8264 99.7616 92.7345C98.9347 92.5508 98.1538 92.5508 97.4187 92.7345C96.7756 92.9183 96.3162 93.2858 96.0406 93.837C95.7649 94.3883 95.9487 95.2152 96.5918 96.3177ZM82.6724 22.4483C82.8562 22.9077 82.8102 23.2293 82.5346 23.413C82.3508 23.5968 82.259 23.7805 82.259 23.9643C82.259 24.148 82.259 24.5615 82.259 25.2046C82.3508 25.7559 82.3968 26.399 82.3968 27.134C82.4887 27.7772 82.5346 28.4203 82.5346 29.0635C82.6265 29.6147 82.6724 29.9822 82.6724 30.166L82.948 31.682C83.0399 31.9576 83.0399 32.2332 82.948 32.5089C82.948 32.6926 82.948 32.9223 82.948 33.198C82.948 33.4736 82.994 33.9789 83.0859 34.7139C83.1777 35.449 83.2237 36.184 83.2237 36.919C83.3156 37.654 83.3156 38.3431 83.2237 38.9862C83.1318 39.6294 82.948 39.9969 82.6724 40.0888C82.7643 41.2832 82.7643 42.4316 82.6724 43.5342C82.6724 44.6367 82.4427 45.6473 81.9833 46.5661C82.0752 47.9443 82.0752 49.0927 81.9833 50.0115C81.9833 50.8384 81.9833 51.7572 81.9833 52.7678C81.9833 53.3191 82.0293 53.8704 82.1211 54.4216C82.213 54.881 82.259 55.3404 82.259 55.7998C81.7077 57.3617 81.478 58.4183 81.5699 58.9696C81.6618 59.5208 81.4321 60.164 80.8808 60.899C81.4321 61.1746 81.6158 61.5421 81.4321 62.0015C81.2483 62.4609 81.1564 62.8744 81.1564 63.2419C81.4321 64.8038 81.3861 66.0901 81.0186 67.1007C80.743 68.0195 80.697 68.9842 80.8808 69.9949C80.9727 70.3624 80.9727 70.7299 80.8808 71.0974C80.8808 71.373 80.8808 71.6486 80.8808 71.9243C81.0646 72.5674 81.0186 73.2106 80.743 73.8537C80.5592 74.405 80.4674 74.9103 80.4674 75.3697C80.2836 76.1047 80.2377 76.8397 80.3295 77.5747C80.4214 78.2179 80.4674 78.907 80.4674 79.642C80.3755 80.9283 80.2836 82.1686 80.1917 83.363C80.0998 84.5574 80.008 85.7978 79.9161 87.084C79.8242 87.8191 79.7323 88.5081 79.6405 89.1513C79.5486 89.7944 79.4567 90.4835 79.3648 91.2185C79.3648 91.586 79.4108 91.9535 79.5026 92.3211C79.5945 92.5967 79.6405 92.9183 79.6405 93.2858C79.6405 94.2964 79.5945 95.353 79.5026 96.4555C79.5026 97.4662 79.4567 98.4768 79.3648 99.4875C79.2729 100.498 79.2729 101.509 79.3648 102.519C79.4567 103.438 79.4567 104.403 79.3648 105.414C79.2729 106.976 79.1811 108.537 79.0892 110.099C79.0892 111.661 79.1811 113.223 79.3648 114.785C79.4567 115.244 79.5945 115.704 79.7783 116.163C79.962 116.531 79.9161 116.944 79.6405 117.404C79.5486 117.495 79.6405 117.863 79.9161 118.506C80.1917 119.149 80.3755 119.563 80.4674 119.746C80.008 120.114 79.8242 120.573 79.9161 121.125C80.008 121.676 80.1917 122.135 80.4674 122.503C80.9267 122.687 81.4321 122.595 81.9833 122.227C82.5346 122.411 82.994 122.411 83.3615 122.227C83.729 122.043 84.0506 121.906 84.3262 121.814C84.7856 121.63 85.245 121.492 85.7044 121.4C86.1638 121.4 86.6231 121.354 87.0825 121.262C88.0932 120.895 88.8741 120.665 89.4254 120.573C90.0685 120.573 90.7576 120.481 91.4926 120.298C91.952 120.114 92.3655 120.16 92.733 120.436C93.1005 120.803 93.5139 120.803 93.9733 120.436C93.7896 120.068 93.8355 119.746 94.1111 119.471C94.3868 119.195 94.5246 118.874 94.5246 118.506C94.5246 118.23 94.4327 117.955 94.249 117.679C94.1571 117.404 94.0652 117.128 93.9733 116.852C93.8815 116.669 93.8815 116.439 93.9733 116.163C94.0652 115.888 94.0652 115.612 93.9733 115.336C93.8815 114.693 93.7436 114.096 93.5599 113.545C93.468 112.993 93.3761 112.396 93.2843 111.753C93.1924 111.294 93.1464 110.788 93.1464 110.237C93.2383 109.686 93.2843 109.181 93.2843 108.721C93.1924 107.527 93.0086 106.424 92.733 105.414C92.5492 104.311 92.3655 103.163 92.1817 101.968C91.998 100.774 91.8602 99.5794 91.7683 98.385C91.6764 97.1906 91.5845 95.9962 91.4926 94.8017C91.4008 94.3424 91.4008 93.9289 91.4926 93.5614C91.5845 93.1939 91.5845 92.7804 91.4926 92.3211C91.4008 91.8617 91.2629 91.4942 91.0792 91.2185C90.8954 90.851 90.7576 90.4376 90.6657 89.9782C90.6657 89.6107 90.7117 89.2891 90.8036 89.0135C90.8954 88.7378 90.9414 88.4622 90.9414 88.1866C91.0333 87.2678 90.9873 86.395 90.8036 85.5681C90.7117 84.7412 90.6657 83.8683 90.6657 82.9496C91.0333 82.3064 91.0792 81.7092 90.8036 81.158C90.5279 80.5148 90.482 79.8717 90.6657 79.2285C90.482 77.391 90.2523 76.0588 89.9767 75.2319C89.7929 74.3131 89.701 73.3943 89.701 72.4755C89.6092 71.9243 89.6092 71.373 89.701 70.8217C89.8848 70.2705 89.9307 69.7192 89.8388 69.168C89.8388 66.0441 89.7929 62.9662 89.701 59.9343C89.6092 56.8104 89.3335 53.7326 88.8741 50.7006C88.6904 49.6899 88.6444 48.6793 88.7363 47.6686C88.8282 46.5661 88.7823 45.5095 88.5985 44.4989C88.5066 43.3963 88.4147 42.7073 88.3229 42.4316C88.231 42.0641 88.1391 41.6507 88.0472 41.1913C88.1391 39.8131 88.0932 38.8484 87.9094 38.2972C87.7257 37.654 87.6338 37.0109 87.6338 36.3677C87.7257 35.449 87.6797 34.9436 87.496 34.8517C87.4041 34.668 87.3582 34.4842 87.3582 34.3005C87.1744 32.3711 86.8988 30.5335 86.5313 28.7878C86.3475 28.3285 86.1638 27.8691 85.98 27.4097C85.7962 26.9503 85.6584 26.4909 85.5666 26.0315C85.7503 25.0209 85.7044 24.2858 85.4287 23.8265C85.245 23.3671 85.199 22.9077 85.2909 22.4483H82.6724ZM127.6 84.3277C127.6 84.0521 127.784 83.7305 128.152 83.363C128.611 82.9955 128.933 82.7199 129.116 82.5361C130.127 81.8011 130.908 81.3417 131.459 81.158C131.643 80.2392 132.011 79.596 132.562 79.2285C133.205 78.861 133.435 78.0801 133.251 76.8857C133.527 76.7019 133.802 76.5181 134.078 76.3344C134.353 76.1506 134.583 75.875 134.767 75.5075C134.859 74.9562 135.088 74.3131 135.456 73.5781C135.823 72.7512 136.191 71.9702 136.559 71.2352C136.926 70.4083 137.248 69.6273 137.523 68.8923C137.891 68.1573 138.12 67.5601 138.212 67.1007C138.304 66.3657 138.212 65.5847 137.937 64.7578C137.661 63.8391 137.569 63.0122 137.661 62.2772C137.661 62.0015 137.707 61.7259 137.799 61.4503C137.983 61.1746 138.12 60.899 138.212 60.6234C138.029 59.429 137.845 58.5102 137.661 57.867C137.569 57.2239 137.477 56.5348 137.385 55.7998C137.569 54.5135 137.431 53.1354 136.972 51.6653C136.604 50.1034 136.421 48.8171 136.421 47.8065C135.686 46.8877 135.043 45.923 134.491 44.9123C133.94 43.8098 133.205 42.891 132.286 42.156C132.194 41.421 131.919 40.8238 131.459 40.3644C131.092 39.905 130.862 39.3078 130.77 38.5728C130.035 38.1134 129.53 37.5162 129.254 36.7812C128.979 36.0462 128.519 35.449 127.876 34.9896C126.957 34.6221 126.36 34.3464 126.084 34.1627C125.901 33.887 125.671 33.6573 125.395 33.4736C124.66 33.1061 123.925 32.7386 123.19 32.3711C122.455 31.9117 121.72 31.5901 120.985 31.4063C119.975 31.0388 119.331 30.8091 119.056 30.7173C118.872 30.5335 118.642 30.3498 118.367 30.166C118.091 29.9822 117.77 29.8904 117.402 29.8904C117.035 29.8904 116.667 29.7985 116.3 29.6147C115.565 29.3391 114.921 29.0175 114.37 28.65C113.819 28.2825 113.13 28.1906 112.303 28.3744C111.752 27.8231 111.063 27.5016 110.236 27.4097C109.501 27.3178 108.812 27.18 108.168 26.9962C107.066 26.7206 106.101 26.399 105.274 26.0315C104.539 25.664 103.529 25.5721 102.242 25.7559C101.232 25.1127 100.267 24.6534 99.3482 24.3777C98.5213 24.1021 97.5106 24.0562 96.3162 24.2399C95.5812 23.6886 94.7084 23.413 93.6977 23.413C92.7789 23.413 91.8602 23.3671 90.9414 23.2752C90.482 24.1021 90.3442 24.8371 90.5279 25.4803C90.8036 26.0315 91.0333 26.7206 91.217 27.5475C91.3089 28.0069 91.3089 28.5122 91.217 29.0635C91.217 29.5229 91.3089 29.9822 91.4926 30.4416C91.952 31.2685 92.1358 31.8198 92.0439 32.0954C91.952 32.3711 91.9061 32.6467 91.9061 32.9223C92.1817 33.933 92.3655 34.9436 92.4574 35.9543C92.5492 36.9649 92.6411 38.0215 92.733 39.124C92.9167 40.2266 93.0546 41.2832 93.1464 42.2938C93.2383 43.2126 93.3761 43.7639 93.5599 43.9476C93.1005 45.7852 93.0086 47.5308 93.2843 49.1846C93.5599 50.8384 93.6977 52.5381 93.6977 54.2838C93.6058 55.662 93.6058 56.7645 93.6977 57.5914C93.7896 58.4183 93.8815 59.1993 93.9733 59.9343C94.0652 60.2099 94.0652 60.5315 93.9733 60.899C93.9733 61.1746 93.9733 61.4503 93.9733 61.7259C94.249 62.5528 94.3408 63.15 94.249 63.5175C94.249 63.7931 94.3408 64.1147 94.5246 64.4822C94.249 65.1253 94.1571 65.5388 94.249 65.7226C94.4327 65.9063 94.5246 66.1819 94.5246 66.5494C94.5246 67.652 94.4327 68.7545 94.249 69.857C94.0652 70.9596 94.0652 72.108 94.249 73.3024C94.3408 73.5781 94.4787 74.1753 94.6624 75.094C94.938 76.0128 95.0759 76.5181 95.0759 76.61C94.8921 77.1613 94.8462 77.6666 94.938 78.126C95.1218 78.5854 95.2596 78.9529 95.3515 79.2285C95.5352 80.9742 95.5812 82.4902 95.4893 83.7765C95.4893 84.9709 95.5812 86.1653 95.7649 87.3597C96.7756 87.8191 97.7862 88.0488 98.7969 88.0488C99.8994 87.9569 100.956 88.0028 101.967 88.1866C102.426 88.2785 102.794 88.4163 103.069 88.6C103.437 88.7838 103.85 88.8757 104.31 88.8757C104.953 88.9675 105.55 88.9216 106.101 88.7378C106.652 88.4622 107.25 88.2785 107.893 88.1866C108.536 88.0947 109.179 88.0947 109.822 88.1866C110.465 88.2785 111.108 88.2785 111.752 88.1866C112.119 88.0947 112.441 88.0028 112.716 87.9109C113.084 87.7272 113.451 87.6353 113.819 87.6353C114.829 87.7272 115.381 87.7272 115.473 87.6353C115.656 87.5434 115.84 87.4516 116.024 87.3597C116.3 87.2678 116.575 87.2678 116.851 87.3597C117.126 87.4516 117.402 87.4516 117.678 87.3597C119.331 86.7165 120.664 86.349 121.674 86.2571C122.777 86.1653 123.833 85.9356 124.844 85.5681C125.304 85.3843 125.763 85.1087 126.222 84.7412C126.682 84.3737 127.141 84.2358 127.6 84.3277Z" fill="#434343"/>
<rect x="84" y="9.60864" width="40" height="118" fill="black"/>
<path d="M104.592 93.3177C104.592 93.6852 104.592 94.1446 104.592 94.6959C104.592 95.1553 104.5 95.4768 104.316 95.6606C104.684 96.7631 104.913 97.8657 105.005 98.9682C105.097 99.9788 105.373 100.76 105.832 101.311C105.465 101.679 105.373 102.046 105.557 102.414C105.74 102.781 105.832 103.195 105.832 103.654V105.446C105.924 105.446 106.062 105.859 106.246 106.686C106.521 107.421 106.659 107.88 106.659 108.064C106.659 108.891 106.659 109.672 106.659 110.407C106.751 111.142 106.935 111.877 107.21 112.612C107.394 113.071 107.624 113.393 107.899 113.577C108.175 113.669 108.359 113.852 108.451 114.128C108.634 114.863 108.726 115.552 108.726 116.195C108.818 116.838 108.956 117.527 109.14 118.262C109.967 118.538 110.702 118.492 111.345 118.125C112.08 117.757 112.815 117.527 113.55 117.436C114.009 117.436 114.561 117.573 115.204 117.849C115.847 118.125 116.306 117.987 116.582 117.436C117.96 118.171 119.108 118.952 120.027 119.778C119.935 120.238 119.752 120.605 119.476 120.881C119.292 121.248 119.108 121.662 118.925 122.121C118.282 122.121 117.684 122.213 117.133 122.397C116.582 122.581 115.985 122.673 115.341 122.673C114.055 122.489 113.136 122.443 112.585 122.535C112.126 122.718 111.666 122.856 111.207 122.948C109.921 123.04 108.634 123.086 107.348 123.086C106.062 123.178 104.776 123.132 103.489 122.948C103.03 122.856 102.616 122.718 102.249 122.535C101.881 122.351 101.468 122.213 101.009 122.121C98.8036 121.846 96.7363 122.121 94.8069 122.948C94.4394 123.132 93.7962 123.224 92.8775 123.224C92.0506 123.316 91.1777 123.408 90.259 123.499C89.4321 123.591 88.6511 123.729 87.9161 123.913C87.1811 124.097 86.7676 124.372 86.6757 124.74C85.4813 124.556 84.7923 124.556 84.6085 124.74C84.4248 124.924 84.1491 125.061 83.7816 125.153C83.0466 125.337 82.4034 125.475 81.8522 125.567C81.3009 125.659 80.6578 125.796 79.9228 125.98C79.1877 126.164 78.5905 126.44 78.1311 126.807C77.7636 127.175 77.1664 127.22 76.3395 126.945C75.5126 126.761 75.0533 126.256 74.9614 125.429C74.9614 124.602 75.0992 123.821 75.3748 123.086C76.5692 122.535 77.8096 122.121 79.0959 121.846C80.474 121.57 81.7603 121.157 82.9547 120.605C83.1385 119.319 83.0925 118.033 82.8169 116.746C82.6331 115.46 82.5413 114.174 82.5413 112.888C82.5413 112.52 82.5872 112.199 82.6791 111.923C82.771 111.647 82.8169 111.372 82.8169 111.096C82.8169 109.534 82.771 108.018 82.6791 106.548C82.6791 104.986 82.725 103.424 82.8169 101.862C82.9088 100.852 82.8628 100.254 82.6791 100.071C82.5872 99.7951 82.5413 99.5194 82.5413 99.2438C82.725 98.2332 82.771 97.636 82.6791 97.4522C82.5872 97.1766 82.5413 96.9469 82.5413 96.7631C82.3575 95.1093 82.3575 94.1446 82.5413 93.869C82.8169 93.5015 82.9547 92.9962 82.9547 92.353C83.0466 91.9855 83.0466 91.6639 82.9547 91.3883C82.8628 91.1127 82.8169 90.837 82.8169 90.5614C82.8169 88.2645 82.9547 86.0135 83.2303 83.8084C83.506 81.5115 83.6897 79.2145 83.7816 76.9176C83.7816 76.2745 83.7357 75.6773 83.6438 75.126C83.6438 74.4829 83.6897 73.7938 83.7816 73.0588C83.8735 72.4156 84.0113 71.8184 84.1951 71.2672C84.3788 70.7159 84.5166 70.1187 84.6085 69.4755C84.6085 69.0162 84.5626 68.5108 84.4707 67.9596C84.3788 67.4083 84.4707 66.903 84.7463 66.4436C84.3788 65.8923 84.3329 65.2492 84.6085 64.5142C84.8841 63.6873 84.7923 63.0441 84.3329 62.5847C84.5166 62.3091 84.6085 61.9875 84.6085 61.62C84.7004 61.2525 84.8382 60.9769 85.022 60.7931C84.8382 59.7825 84.8382 58.8637 85.022 58.0368C85.2057 57.2099 85.2976 56.3371 85.2976 55.4183C85.2057 54.4076 85.2057 53.7645 85.2976 53.4889C85.4813 53.2132 85.5732 52.8917 85.5732 52.5242C85.5732 52.1567 85.5273 51.8351 85.4354 51.5594C85.3435 51.1919 85.2976 50.8244 85.2976 50.4569C85.2976 49.63 85.3435 48.8031 85.4354 47.9762C85.6192 47.1493 85.757 46.2765 85.8488 45.3577C85.8488 44.8983 85.8029 44.393 85.711 43.8417C85.711 43.2905 85.757 42.7852 85.8488 42.3258C85.9407 41.407 86.0785 40.5342 86.2623 39.7073C86.4461 38.8804 86.5839 38.0075 86.6757 37.0888C86.7676 35.7106 86.7676 34.6999 86.6757 34.0568C86.5839 33.4137 86.492 32.7246 86.4001 31.9896C86.3082 31.7139 86.2623 31.3924 86.2623 31.0249C86.3542 30.6573 86.4001 30.2898 86.4001 29.9223C86.1245 28.2685 85.9867 26.8904 85.9867 25.7878C86.0785 24.5934 85.9407 23.399 85.5732 22.2046C85.757 21.4696 85.8029 20.9643 85.711 20.6886C85.6192 20.3211 85.3895 19.8158 85.022 19.1727C84.6544 19.0808 84.0113 19.0808 83.0925 19.1727C82.2656 19.2645 81.3928 19.4024 80.474 19.5861C79.5552 19.678 78.7284 19.7699 77.9933 19.8617C77.2583 19.9536 76.7989 19.9996 76.6152 19.9996C75.6045 19.6321 75.0992 18.943 75.0992 17.9323C75.0992 17.4729 75.1911 17.1054 75.3748 16.8298C75.5586 16.5542 75.6964 16.2326 75.7883 15.8651C76.2477 15.8651 76.6152 15.8191 76.8908 15.7273C77.2583 15.5435 77.6718 15.4057 78.1311 15.3138C79.0499 15.3138 79.5552 15.2679 79.6471 15.176C79.8309 14.9922 80.0146 14.8544 80.1984 14.7626C80.474 14.7626 80.7037 14.8085 80.8875 14.9004C81.1631 14.9922 81.4387 15.0382 81.7144 15.0382C82.1738 15.0382 82.5872 14.9922 82.9547 14.9004C83.3222 14.8085 83.6897 14.7166 84.0572 14.6247C84.5166 15.0841 85.2057 15.2219 86.1245 15.0382C87.1351 14.7626 87.962 14.6247 88.6052 14.6247C89.0646 14.6247 89.6618 14.6247 90.3968 14.6247C91.2237 14.6247 92.0506 14.6707 92.8775 14.7626C93.7962 14.8544 94.6231 14.9922 95.3582 15.176C96.0932 15.3598 96.5985 15.5895 96.8741 15.8651C97.4254 15.5895 98.0226 15.4516 98.6657 15.4516C99.4008 15.3598 100.09 15.2219 100.733 15.0382C100.917 15.4057 101.146 15.5895 101.422 15.5895C101.698 15.4976 101.973 15.4976 102.249 15.5895C102.708 15.7732 103.122 15.957 103.489 16.1407C103.857 16.3245 104.316 16.4623 104.867 16.5542C105.694 16.7379 106.246 16.7839 106.521 16.692C106.797 16.6001 107.073 16.5542 107.348 16.5542C107.991 16.7379 108.589 17.0136 109.14 17.3811C109.783 17.6567 110.38 17.9323 110.931 18.208C111.391 18.3917 111.758 18.4836 112.034 18.4836C112.401 18.3917 112.815 18.3458 113.274 18.3458C114.377 18.3458 115.112 18.5295 115.479 18.897C115.939 19.2645 116.398 19.5402 116.857 19.7239C117.501 19.9077 118.144 19.9996 118.787 19.9996C119.43 19.9077 119.981 20.1374 120.441 20.6886C120.808 20.7805 121.084 20.7346 121.268 20.5508C121.451 20.3671 121.727 20.3211 122.094 20.413C122.278 20.6886 122.829 21.0102 123.748 21.3777C124.759 21.7452 125.816 22.1587 126.918 22.6181C128.021 22.9856 129.031 23.399 129.95 23.8584C130.961 24.3178 131.558 24.7313 131.742 25.0988C133.028 25.0069 133.993 25.2366 134.636 25.7878C135.279 26.3391 136.106 26.7066 137.116 26.8904C137.943 28.1767 138.862 29.3711 139.873 30.4736C140.975 31.4842 141.94 32.5868 142.767 33.7812C142.951 33.9649 143.088 34.1946 143.18 34.4703C143.272 34.7459 143.41 34.9756 143.594 35.1593C144.788 36.17 145.477 37.0428 145.661 37.7778C145.845 38.421 146.258 38.8804 146.901 39.156C147.085 40.1667 147.453 40.9476 148.004 41.4989C148.647 42.4176 148.923 42.9689 148.831 43.1527C148.739 43.2445 148.693 43.3824 148.693 43.5661C149.244 44.4849 149.474 45.128 149.382 45.4955C149.29 45.8631 149.336 46.2306 149.52 46.5981C149.704 47.3331 149.933 47.9303 150.209 48.3897C150.576 48.8491 150.668 49.5381 150.485 50.4569C150.301 50.9163 150.255 51.5594 150.347 52.3863C150.439 53.1214 150.531 53.9023 150.622 54.7292C150.714 55.5561 150.76 56.3371 150.76 57.0721C150.76 57.7152 150.668 58.0827 150.485 58.1746C150.576 58.4503 150.622 58.7718 150.622 59.1393C150.714 59.415 150.944 59.5987 151.311 59.6906C150.944 60.4256 150.76 61.2525 150.76 62.1713C150.76 62.9982 150.852 63.8251 151.036 64.652C150.301 65.387 150.025 66.3058 150.209 67.4083C150.117 67.5921 149.887 68.0974 149.52 68.9243C149.152 69.7512 148.739 70.7159 148.28 71.8184C147.912 72.8291 147.545 73.7938 147.177 74.7126C146.809 75.5394 146.626 76.0448 146.626 76.2285C146.166 76.3204 145.845 76.596 145.661 77.0554C145.477 77.5148 145.294 77.9742 145.11 78.4336C144.926 78.4336 144.65 78.6173 144.283 78.9849C144.007 79.2605 143.686 79.628 143.318 80.0874C142.951 80.4549 142.629 80.8683 142.353 81.3277C142.078 81.6952 141.894 81.9249 141.802 82.0168C141.251 82.2924 140.7 82.5681 140.148 82.8437C139.597 83.0275 139.184 83.4409 138.908 84.084C138.541 84.084 138.173 84.2219 137.806 84.4975C137.438 84.6812 137.116 84.9109 136.841 85.1866C136.565 85.4622 136.29 85.6919 136.014 85.8757C135.738 86.0594 135.463 86.0594 135.187 85.8757C134.176 86.335 133.487 86.5647 133.12 86.5647C132.844 86.4729 132.477 86.5188 132.017 86.7026C131.374 86.8863 130.777 87.1619 130.226 87.5294C129.674 87.8051 129.077 88.0348 128.434 88.2185C128.158 88.3104 127.837 88.3563 127.469 88.3563C127.194 88.2645 126.918 88.2185 126.642 88.2185C126.367 88.3104 126.091 88.4023 125.816 88.4942C125.632 88.586 125.402 88.6779 125.126 88.7698C124.943 88.6779 124.621 88.632 124.162 88.632C123.702 88.632 123.197 88.6779 122.646 88.7698C122.094 88.7698 121.589 88.8157 121.13 88.9076C120.67 88.9995 120.303 89.0454 120.027 89.0454C119.66 89.0454 119.338 89.1373 119.063 89.3211C118.787 89.4129 118.511 89.4589 118.236 89.4589C117.96 89.5508 117.684 89.5508 117.409 89.4589C117.133 89.367 116.857 89.3211 116.582 89.3211C115.939 89.2292 115.341 89.3211 114.79 89.5967C114.239 89.7804 113.642 89.9183 112.999 90.0101C112.447 90.102 111.896 90.102 111.345 90.0101C110.794 89.9183 110.242 90.0101 109.691 90.2858C109.232 90.0101 108.589 89.8264 107.762 89.7345C106.935 89.5508 106.154 89.5508 105.419 89.7345C104.776 89.9183 104.316 90.2858 104.041 90.837C103.765 91.3883 103.949 92.2152 104.592 93.3177ZM90.6724 19.4483C90.8562 19.9077 90.8102 20.2293 90.5346 20.413C90.3508 20.5968 90.259 20.7805 90.259 20.9643C90.259 21.148 90.259 21.5615 90.259 22.2046C90.3508 22.7559 90.3968 23.399 90.3968 24.134C90.4887 24.7772 90.5346 25.4203 90.5346 26.0635C90.6265 26.6147 90.6724 26.9822 90.6724 27.166L90.948 28.682C91.0399 28.9576 91.0399 29.2332 90.948 29.5089C90.948 29.6926 90.948 29.9223 90.948 30.198C90.948 30.4736 90.994 30.9789 91.0859 31.7139C91.1777 32.449 91.2237 33.184 91.2237 33.919C91.3156 34.654 91.3156 35.3431 91.2237 35.9862C91.1318 36.6294 90.948 36.9969 90.6724 37.0888C90.7643 38.2832 90.7643 39.4316 90.6724 40.5342C90.6724 41.6367 90.4427 42.6473 89.9833 43.5661C90.0752 44.9443 90.0752 46.0927 89.9833 47.0115C89.9833 47.8384 89.9833 48.7572 89.9833 49.7678C89.9833 50.3191 90.0293 50.8704 90.1211 51.4216C90.213 51.881 90.259 52.3404 90.259 52.7998C89.7077 54.3617 89.478 55.4183 89.5699 55.9696C89.6618 56.5208 89.4321 57.164 88.8808 57.899C89.4321 58.1746 89.6158 58.5421 89.4321 59.0015C89.2483 59.4609 89.1564 59.8744 89.1564 60.2419C89.4321 61.8038 89.3861 63.0901 89.0186 64.1007C88.743 65.0195 88.697 65.9842 88.8808 66.9949C88.9727 67.3624 88.9727 67.7299 88.8808 68.0974C88.8808 68.373 88.8808 68.6486 88.8808 68.9243C89.0646 69.5674 89.0186 70.2106 88.743 70.8537C88.5592 71.405 88.4674 71.9103 88.4674 72.3697C88.2836 73.1047 88.2377 73.8397 88.3295 74.5747C88.4214 75.2179 88.4674 75.907 88.4674 76.642C88.3755 77.9283 88.2836 79.1686 88.1917 80.363C88.0998 81.5574 88.008 82.7978 87.9161 84.084C87.8242 84.8191 87.7323 85.5081 87.6405 86.1513C87.5486 86.7944 87.4567 87.4835 87.3648 88.2185C87.3648 88.586 87.4108 88.9535 87.5026 89.3211C87.5945 89.5967 87.6405 89.9183 87.6405 90.2858C87.6405 91.2964 87.5945 92.353 87.5026 93.4555C87.5026 94.4662 87.4567 95.4768 87.3648 96.4875C87.2729 97.4981 87.2729 98.5088 87.3648 99.5194C87.4567 100.438 87.4567 101.403 87.3648 102.414C87.2729 103.976 87.1811 105.537 87.0892 107.099C87.0892 108.661 87.1811 110.223 87.3648 111.785C87.4567 112.244 87.5945 112.704 87.7783 113.163C87.962 113.531 87.9161 113.944 87.6405 114.404C87.5486 114.495 87.6405 114.863 87.9161 115.506C88.1917 116.149 88.3755 116.563 88.4674 116.746C88.008 117.114 87.8242 117.573 87.9161 118.125C88.008 118.676 88.1917 119.135 88.4674 119.503C88.9267 119.687 89.4321 119.595 89.9833 119.227C90.5346 119.411 90.994 119.411 91.3615 119.227C91.729 119.043 92.0506 118.906 92.3262 118.814C92.7856 118.63 93.245 118.492 93.7044 118.4C94.1638 118.4 94.6231 118.354 95.0825 118.262C96.0932 117.895 96.8741 117.665 97.4254 117.573C98.0685 117.573 98.7576 117.481 99.4926 117.298C99.952 117.114 100.365 117.16 100.733 117.436C101.1 117.803 101.514 117.803 101.973 117.436C101.79 117.068 101.836 116.746 102.111 116.471C102.387 116.195 102.525 115.874 102.525 115.506C102.525 115.23 102.433 114.955 102.249 114.679C102.157 114.404 102.065 114.128 101.973 113.852C101.881 113.669 101.881 113.439 101.973 113.163C102.065 112.888 102.065 112.612 101.973 112.336C101.881 111.693 101.744 111.096 101.56 110.545C101.468 109.993 101.376 109.396 101.284 108.753C101.192 108.294 101.146 107.788 101.146 107.237C101.238 106.686 101.284 106.181 101.284 105.721C101.192 104.527 101.009 103.424 100.733 102.414C100.549 101.311 100.365 100.163 100.182 98.9682C99.998 97.7738 99.8602 96.5794 99.7683 95.385C99.6764 94.1906 99.5845 92.9962 99.4926 91.8017C99.4008 91.3424 99.4008 90.9289 99.4926 90.5614C99.5845 90.1939 99.5845 89.7804 99.4926 89.3211C99.4008 88.8617 99.2629 88.4942 99.0792 88.2185C98.8954 87.851 98.7576 87.4376 98.6657 86.9782C98.6657 86.6107 98.7117 86.2891 98.8036 86.0135C98.8954 85.7378 98.9414 85.4622 98.9414 85.1866C99.0333 84.2678 98.9873 83.395 98.8036 82.5681C98.7117 81.7412 98.6657 80.8683 98.6657 79.9496C99.0333 79.3064 99.0792 78.7092 98.8036 78.158C98.5279 77.5148 98.482 76.8717 98.6657 76.2285C98.482 74.391 98.2523 73.0588 97.9767 72.2319C97.7929 71.3131 97.701 70.3943 97.701 69.4755C97.6092 68.9243 97.6092 68.373 97.701 67.8217C97.8848 67.2705 97.9307 66.7192 97.8388 66.168C97.8388 63.0441 97.7929 59.9662 97.701 56.9343C97.6092 53.8104 97.3335 50.7326 96.8741 47.7006C96.6904 46.6899 96.6444 45.6793 96.7363 44.6686C96.8282 43.5661 96.7823 42.5095 96.5985 41.4989C96.5066 40.3963 96.4147 39.7073 96.3229 39.4316C96.231 39.0641 96.1391 38.6507 96.0472 38.1913C96.1391 36.8131 96.0932 35.8484 95.9094 35.2972C95.7257 34.654 95.6338 34.0109 95.6338 33.3677C95.7257 32.449 95.6797 31.9436 95.496 31.8517C95.4041 31.668 95.3582 31.4842 95.3582 31.3005C95.1744 29.3711 94.8988 27.5335 94.5313 25.7878C94.3475 25.3285 94.1638 24.8691 93.98 24.4097C93.7962 23.9503 93.6584 23.4909 93.5666 23.0315C93.7503 22.0209 93.7044 21.2858 93.4287 20.8265C93.245 20.3671 93.199 19.9077 93.2909 19.4483H90.6724ZM135.6 81.3277C135.6 81.0521 135.784 80.7305 136.152 80.363C136.611 79.9955 136.933 79.7199 137.116 79.5361C138.127 78.8011 138.908 78.3417 139.459 78.158C139.643 77.2392 140.011 76.596 140.562 76.2285C141.205 75.861 141.435 75.0801 141.251 73.8857C141.527 73.7019 141.802 73.5181 142.078 73.3344C142.353 73.1506 142.583 72.875 142.767 72.5075C142.859 71.9562 143.088 71.3131 143.456 70.5781C143.823 69.7512 144.191 68.9702 144.559 68.2352C144.926 67.4083 145.248 66.6273 145.523 65.8923C145.891 65.1573 146.12 64.5601 146.212 64.1007C146.304 63.3657 146.212 62.5847 145.937 61.7578C145.661 60.8391 145.569 60.0122 145.661 59.2772C145.661 59.0015 145.707 58.7259 145.799 58.4503C145.983 58.1746 146.12 57.899 146.212 57.6234C146.029 56.429 145.845 55.5102 145.661 54.867C145.569 54.2239 145.477 53.5348 145.385 52.7998C145.569 51.5135 145.431 50.1354 144.972 48.6653C144.604 47.1034 144.421 45.8171 144.421 44.8065C143.686 43.8877 143.043 42.923 142.491 41.9123C141.94 40.8098 141.205 39.891 140.286 39.156C140.194 38.421 139.919 37.8238 139.459 37.3644C139.092 36.905 138.862 36.3078 138.77 35.5728C138.035 35.1134 137.53 34.5162 137.254 33.7812C136.979 33.0462 136.519 32.449 135.876 31.9896C134.957 31.6221 134.36 31.3464 134.084 31.1627C133.901 30.887 133.671 30.6573 133.395 30.4736C132.66 30.1061 131.925 29.7386 131.19 29.3711C130.455 28.9117 129.72 28.5901 128.985 28.4063C127.975 28.0388 127.331 27.8091 127.056 27.7173C126.872 27.5335 126.642 27.3498 126.367 27.166C126.091 26.9822 125.77 26.8904 125.402 26.8904C125.035 26.8904 124.667 26.7985 124.3 26.6147C123.565 26.3391 122.921 26.0175 122.37 25.65C121.819 25.2825 121.13 25.1906 120.303 25.3744C119.752 24.8231 119.063 24.5016 118.236 24.4097C117.501 24.3178 116.812 24.18 116.168 23.9962C115.066 23.7206 114.101 23.399 113.274 23.0315C112.539 22.664 111.529 22.5721 110.242 22.7559C109.232 22.1127 108.267 21.6534 107.348 21.3777C106.521 21.1021 105.511 21.0562 104.316 21.2399C103.581 20.6886 102.708 20.413 101.698 20.413C100.779 20.413 99.8602 20.3671 98.9414 20.2752C98.482 21.1021 98.3442 21.8371 98.5279 22.4803C98.8036 23.0315 99.0333 23.7206 99.217 24.5475C99.3089 25.0069 99.3089 25.5122 99.217 26.0635C99.217 26.5229 99.3089 26.9822 99.4926 27.4416C99.952 28.2685 100.136 28.8198 100.044 29.0954C99.952 29.3711 99.9061 29.6467 99.9061 29.9223C100.182 30.933 100.365 31.9436 100.457 32.9543C100.549 33.9649 100.641 35.0215 100.733 36.124C100.917 37.2266 101.055 38.2832 101.146 39.2938C101.238 40.2126 101.376 40.7639 101.56 40.9476C101.1 42.7852 101.009 44.5308 101.284 46.1846C101.56 47.8384 101.698 49.5381 101.698 51.2838C101.606 52.662 101.606 53.7645 101.698 54.5914C101.79 55.4183 101.881 56.1993 101.973 56.9343C102.065 57.2099 102.065 57.5315 101.973 57.899C101.973 58.1746 101.973 58.4503 101.973 58.7259C102.249 59.5528 102.341 60.15 102.249 60.5175C102.249 60.7931 102.341 61.1147 102.525 61.4822C102.249 62.1253 102.157 62.5388 102.249 62.7226C102.433 62.9063 102.525 63.1819 102.525 63.5494C102.525 64.652 102.433 65.7545 102.249 66.857C102.065 67.9596 102.065 69.108 102.249 70.3024C102.341 70.5781 102.479 71.1753 102.662 72.094C102.938 73.0128 103.076 73.5181 103.076 73.61C102.892 74.1613 102.846 74.6666 102.938 75.126C103.122 75.5854 103.26 75.9529 103.351 76.2285C103.535 77.9742 103.581 79.4902 103.489 80.7765C103.489 81.9709 103.581 83.1653 103.765 84.3597C104.776 84.8191 105.786 85.0488 106.797 85.0488C107.899 84.9569 108.956 85.0028 109.967 85.1866C110.426 85.2785 110.794 85.4163 111.069 85.6C111.437 85.7838 111.85 85.8757 112.31 85.8757C112.953 85.9675 113.55 85.9216 114.101 85.7378C114.652 85.4622 115.25 85.2785 115.893 85.1866C116.536 85.0947 117.179 85.0947 117.822 85.1866C118.465 85.2785 119.108 85.2785 119.752 85.1866C120.119 85.0947 120.441 85.0028 120.716 84.9109C121.084 84.7272 121.451 84.6353 121.819 84.6353C122.829 84.7272 123.381 84.7272 123.473 84.6353C123.656 84.5434 123.84 84.4516 124.024 84.3597C124.3 84.2678 124.575 84.2678 124.851 84.3597C125.126 84.4516 125.402 84.4516 125.678 84.3597C127.331 83.7165 128.664 83.349 129.674 83.2571C130.777 83.1653 131.833 82.9356 132.844 82.5681C133.304 82.3843 133.763 82.1087 134.222 81.7412C134.682 81.3737 135.141 81.2358 135.6 81.3277Z" fill="#FFFC52"/>
</svg>
