<svg width="91" height="117" viewBox="0 0 91 117" fill="none" xmlns="http://www.w3.org/2000/svg">
<path d="M34.5918 82.3177C34.5918 82.6852 34.5918 83.1446 34.5918 83.6959C34.5918 84.1553 34.5 84.4768 34.3162 84.6606C34.6837 85.7631 34.9134 86.8657 35.0053 87.9682C35.0972 88.9788 35.3728 89.7598 35.8322 90.3111C35.4647 90.6786 35.3728 91.0461 35.5566 91.4136C35.7403 91.7811 35.8322 92.1945 35.8322 92.6539V94.4455C35.9241 94.4455 36.0619 94.859 36.2456 95.6859C36.5213 96.4209 36.6591 96.8803 36.6591 97.064C36.6591 97.8909 36.6591 98.6719 36.6591 99.4069C36.751 100.142 36.9347 100.877 37.2103 101.612C37.3941 102.071 37.6238 102.393 37.8994 102.577C38.1751 102.669 38.3588 102.852 38.4507 103.128C38.6344 103.863 38.7263 104.552 38.7263 105.195C38.8182 105.838 38.956 106.527 39.1398 107.262C39.9667 107.538 40.7017 107.492 41.3448 107.125C42.0798 106.757 42.8149 106.527 43.5499 106.436C44.0093 106.436 44.5605 106.573 45.2037 106.849C45.8468 107.125 46.3062 106.987 46.5818 106.436C47.96 107.171 49.1085 107.952 50.0272 108.778C49.9354 109.238 49.7516 109.605 49.476 109.881C49.2922 110.248 49.1085 110.662 48.9247 111.121C48.2816 111.121 47.6844 111.213 47.1331 111.397C46.5818 111.581 45.9846 111.673 45.3415 111.673C44.0552 111.489 43.1364 111.443 42.5852 111.535C42.1258 111.718 41.6664 111.856 41.207 111.948C39.9207 112.04 38.6344 112.086 37.3482 112.086C36.0619 112.178 34.7756 112.132 33.4893 111.948C33.0299 111.856 32.6165 111.718 32.249 111.535C31.8815 111.351 31.468 111.213 31.0086 111.121C28.8036 110.846 26.7363 111.121 24.8069 111.948C24.4394 112.132 23.7962 112.224 22.8775 112.224C22.0506 112.316 21.1777 112.408 20.259 112.499C19.4321 112.591 18.6511 112.729 17.9161 112.913C17.1811 113.097 16.7676 113.372 16.6757 113.74C15.4813 113.556 14.7923 113.556 14.6085 113.74C14.4248 113.924 14.1491 114.061 13.7816 114.153C13.0466 114.337 12.4034 114.475 11.8522 114.567C11.3009 114.659 10.6578 114.796 9.92276 114.98C9.18774 115.164 8.59054 115.44 8.13115 115.807C7.76364 116.175 7.16644 116.22 6.33954 115.945C5.51264 115.761 5.05326 115.256 4.96138 114.429C4.96138 113.602 5.0992 112.821 5.37483 112.086C6.56923 111.535 7.80958 111.121 9.09586 110.846C10.474 110.57 11.7603 110.157 12.9547 109.605C13.1385 108.319 13.0925 107.033 12.8169 105.746C12.6331 104.46 12.5413 103.174 12.5413 101.888C12.5413 101.52 12.5872 101.199 12.6791 100.923C12.771 100.647 12.8169 100.372 12.8169 100.096C12.8169 98.5341 12.771 97.0181 12.6791 95.5481C12.6791 93.9862 12.725 92.4242 12.8169 90.8623C12.9088 89.8517 12.8628 89.2545 12.6791 89.0707C12.5872 88.7951 12.5413 88.5194 12.5413 88.2438C12.725 87.2332 12.771 86.636 12.6791 86.4522C12.5872 86.1766 12.5413 85.9469 12.5413 85.7631C12.3575 84.1093 12.3575 83.1446 12.5413 82.869C12.8169 82.5015 12.9547 81.9962 12.9547 81.353C13.0466 80.9855 13.0466 80.6639 12.9547 80.3883C12.8628 80.1127 12.8169 79.837 12.8169 79.5614C12.8169 77.2645 12.9547 75.0135 13.2303 72.8084C13.506 70.5115 13.6897 68.2145 13.7816 65.9176C13.7816 65.2745 13.7357 64.6773 13.6438 64.126C13.6438 63.4829 13.6897 62.7938 13.7816 62.0588C13.8735 61.4156 14.0113 60.8184 14.1951 60.2672C14.3788 59.7159 14.5166 59.1187 14.6085 58.4755C14.6085 58.0162 14.5626 57.5108 14.4707 56.9596C14.3788 56.4083 14.4707 55.903 14.7463 55.4436C14.3788 54.8923 14.3329 54.2492 14.6085 53.5142C14.8841 52.6873 14.7923 52.0441 14.3329 51.5847C14.5166 51.3091 14.6085 50.9875 14.6085 50.62C14.7004 50.2525 14.8382 49.9769 15.022 49.7931C14.8382 48.7825 14.8382 47.8637 15.022 47.0368C15.2057 46.2099 15.2976 45.3371 15.2976 44.4183C15.2057 43.4076 15.2057 42.7645 15.2976 42.4889C15.4813 42.2132 15.5732 41.8917 15.5732 41.5242C15.5732 41.1567 15.5273 40.8351 15.4354 40.5594C15.3435 40.1919 15.2976 39.8244 15.2976 39.4569C15.2976 38.63 15.3435 37.8031 15.4354 36.9762C15.6192 36.1493 15.757 35.2765 15.8488 34.3577C15.8488 33.8983 15.8029 33.393 15.711 32.8417C15.711 32.2905 15.757 31.7852 15.8488 31.3258C15.9407 30.407 16.0785 29.5342 16.2623 28.7073C16.4461 27.8804 16.5839 27.0075 16.6757 26.0888C16.7676 24.7106 16.7676 23.6999 16.6757 23.0568C16.5839 22.4137 16.492 21.7246 16.4001 20.9896C16.3082 20.7139 16.2623 20.3924 16.2623 20.0249C16.3542 19.6573 16.4001 19.2898 16.4001 18.9223C16.1245 17.2685 15.9867 15.8904 15.9867 14.7878C16.0785 13.5934 15.9407 12.399 15.5732 11.2046C15.757 10.4696 15.8029 9.96428 15.711 9.68865C15.6192 9.32114 15.3895 8.81581 15.022 8.17267C14.6544 8.08079 14.0113 8.08079 13.0925 8.17267C12.2656 8.26455 11.3928 8.40236 10.474 8.58612C9.55525 8.678 8.72835 8.76987 7.99333 8.86175C7.25831 8.95363 6.79893 8.99957 6.61517 8.99957C5.60452 8.63206 5.0992 7.94298 5.0992 6.93232C5.0992 6.47294 5.19107 6.10543 5.37483 5.8298C5.55858 5.55416 5.6964 5.23259 5.78828 4.86508C6.24766 4.86508 6.61517 4.81914 6.8908 4.72727C7.25831 4.54351 7.67176 4.4057 8.13115 4.31382C9.04992 4.31382 9.55525 4.26788 9.64713 4.176C9.83088 3.99225 10.0146 3.85443 10.1984 3.76255C10.474 3.76255 10.7037 3.80849 10.8875 3.90037C11.1631 3.99225 11.4387 4.03819 11.7144 4.03819C12.1738 4.03819 12.5872 3.99225 12.9547 3.90037C13.3222 3.80849 13.6897 3.71662 14.0572 3.62474C14.5166 4.08413 15.2057 4.22194 16.1245 4.03819C17.1351 3.76255 17.962 3.62474 18.6052 3.62474C19.0646 3.62474 19.6618 3.62474 20.3968 3.62474C21.2237 3.62474 22.0506 3.67068 22.8775 3.76255C23.7962 3.85443 24.6231 3.99225 25.3582 4.176C26.0932 4.35976 26.5985 4.58945 26.8741 4.86508C27.4254 4.58945 28.0226 4.45164 28.6657 4.45164C29.4008 4.35976 30.0898 4.22194 30.733 4.03819C30.9167 4.4057 31.1464 4.58945 31.4221 4.58945C31.6977 4.49757 31.9733 4.49757 32.249 4.58945C32.7084 4.77321 33.1218 4.95696 33.4893 5.14072C33.8568 5.32447 34.3162 5.46229 34.8675 5.55416C35.6944 5.73792 36.2456 5.78386 36.5213 5.69198C36.7969 5.6001 37.0725 5.55416 37.3482 5.55416C37.9913 5.73792 38.5885 6.01355 39.1398 6.38106C39.7829 6.65669 40.3801 6.93232 40.9314 7.20796C41.3908 7.39171 41.7583 7.48359 42.0339 7.48359C42.4014 7.39171 42.8149 7.34577 43.2743 7.34577C44.3768 7.34577 45.1118 7.52953 45.4793 7.89704C45.9387 8.26455 46.3981 8.54018 46.8575 8.72393C47.5006 8.90769 48.1438 8.99957 48.7869 8.99957C49.43 8.90769 49.9813 9.13738 50.4407 9.68865C50.8082 9.78052 51.0838 9.73459 51.2676 9.55083C51.4513 9.36708 51.727 9.32114 52.0945 9.41301C52.2782 9.68865 52.8295 10.0102 53.7483 10.3777C54.7589 10.7452 55.8155 11.1587 56.918 11.6181C58.0206 11.9856 59.0312 12.399 59.95 12.8584C60.9606 13.3178 61.5579 13.7313 61.7416 14.0988C63.0279 14.0069 63.9926 14.2366 64.6357 14.7878C65.2789 15.3391 66.1058 15.7066 67.1164 15.8904C67.9433 17.1767 68.8621 18.3711 69.8728 19.4736C70.9753 20.4842 71.94 21.5868 72.7669 22.7812C72.9506 22.9649 73.0885 23.1946 73.1803 23.4703C73.2722 23.7459 73.41 23.9756 73.5938 24.1593C74.7882 25.17 75.4773 26.0428 75.661 26.7778C75.8448 27.421 76.2582 27.8804 76.9014 28.156C77.0851 29.1667 77.4526 29.9476 78.0039 30.4989C78.647 31.4176 78.9227 31.9689 78.8308 32.1527C78.7389 32.2445 78.693 32.3824 78.693 32.5661C79.2442 33.4849 79.4739 34.128 79.3821 34.4955C79.2902 34.8631 79.3361 35.2306 79.5199 35.5981C79.7036 36.3331 79.9333 36.9303 80.209 37.3897C80.5765 37.8491 80.6683 38.5381 80.4846 39.4569C80.3008 39.9163 80.2549 40.5594 80.3468 41.3863C80.4387 42.1214 80.5305 42.9023 80.6224 43.7292C80.7143 44.5561 80.7602 45.3371 80.7602 46.0721C80.7602 46.7152 80.6683 47.0827 80.4846 47.1746C80.5765 47.4503 80.6224 47.7718 80.6224 48.1393C80.7143 48.415 80.944 48.5987 81.3115 48.6906C80.944 49.4256 80.7602 50.2525 80.7602 51.1713C80.7602 51.9982 80.8521 52.8251 81.0359 53.652C80.3008 54.387 80.0252 55.3058 80.209 56.4083C80.1171 56.5921 79.8874 57.0974 79.5199 57.9243C79.1524 58.7512 78.7389 59.7159 78.2795 60.8184C77.912 61.8291 77.5445 62.7938 77.177 63.7126C76.8095 64.5394 76.6257 65.0448 76.6257 65.2285C76.1664 65.3204 75.8448 65.596 75.661 66.0554C75.4773 66.5148 75.2935 66.9742 75.1098 67.4336C74.926 67.4336 74.6504 67.6173 74.2829 67.9849C74.0072 68.2605 73.6857 68.628 73.3182 69.0874C72.9506 69.4549 72.6291 69.8683 72.3534 70.3277C72.0778 70.6952 71.8941 70.9249 71.8022 71.0168C71.2509 71.2924 70.6997 71.5681 70.1484 71.8437C69.5971 72.0275 69.1837 72.4409 68.908 73.084C68.5405 73.084 68.173 73.2219 67.8055 73.4975C67.438 73.6812 67.1164 73.9109 66.8408 74.1866C66.5652 74.4622 66.2895 74.6919 66.0139 74.8757C65.7383 75.0594 65.4626 75.0594 65.187 74.8757C64.1764 75.335 63.4873 75.5647 63.1198 75.5647C62.8441 75.4729 62.4766 75.5188 62.0172 75.7026C61.3741 75.8863 60.7769 76.1619 60.2256 76.5294C59.6744 76.8051 59.0772 77.0348 58.434 77.2185C58.1584 77.3104 57.8368 77.3563 57.4693 77.3563C57.1937 77.2645 56.918 77.2185 56.6424 77.2185C56.3668 77.3104 56.0911 77.4023 55.8155 77.4942C55.6318 77.586 55.4021 77.6779 55.1264 77.7698C54.9427 77.6779 54.6211 77.632 54.1617 77.632C53.7023 77.632 53.197 77.6779 52.6457 77.7698C52.0945 77.7698 51.5892 77.8157 51.1298 77.9076C50.6704 77.9995 50.3029 78.0454 50.0272 78.0454C49.6597 78.0454 49.3382 78.1373 49.0625 78.3211C48.7869 78.4129 48.5113 78.4589 48.2356 78.4589C47.96 78.5508 47.6844 78.5508 47.4087 78.4589C47.1331 78.367 46.8575 78.3211 46.5818 78.3211C45.9387 78.2292 45.3415 78.3211 44.7902 78.5967C44.239 78.7804 43.6418 78.9183 42.9986 79.0101C42.4474 79.102 41.8961 79.102 41.3448 79.0101C40.7936 78.9183 40.2423 79.0101 39.691 79.2858C39.2316 79.0101 38.5885 78.8264 37.7616 78.7345C36.9347 78.5508 36.1538 78.5508 35.4187 78.7345C34.7756 78.9183 34.3162 79.2858 34.0406 79.837C33.7649 80.3883 33.9487 81.2152 34.5918 82.3177ZM20.6724 8.4483C20.8562 8.90769 20.8102 9.22926 20.5346 9.41301C20.3508 9.59677 20.259 9.78052 20.259 9.96428C20.259 10.148 20.259 10.5615 20.259 11.2046C20.3508 11.7559 20.3968 12.399 20.3968 13.134C20.4887 13.7772 20.5346 14.4203 20.5346 15.0635C20.6265 15.6147 20.6724 15.9822 20.6724 16.166L20.948 17.682C21.0399 17.9576 21.0399 18.2332 20.948 18.5089C20.948 18.6926 20.948 18.9223 20.948 19.198C20.948 19.4736 20.994 19.9789 21.0859 20.7139C21.1777 21.449 21.2237 22.184 21.2237 22.919C21.3156 23.654 21.3156 24.3431 21.2237 24.9862C21.1318 25.6294 20.948 25.9969 20.6724 26.0888C20.7643 27.2832 20.7643 28.4316 20.6724 29.5342C20.6724 30.6367 20.4427 31.6473 19.9833 32.5661C20.0752 33.9443 20.0752 35.0927 19.9833 36.0115C19.9833 36.8384 19.9833 37.7572 19.9833 38.7678C19.9833 39.3191 20.0293 39.8704 20.1211 40.4216C20.213 40.881 20.259 41.3404 20.259 41.7998C19.7077 43.3617 19.478 44.4183 19.5699 44.9696C19.6618 45.5208 19.4321 46.164 18.8808 46.899C19.4321 47.1746 19.6158 47.5421 19.4321 48.0015C19.2483 48.4609 19.1564 48.8744 19.1564 49.2419C19.4321 50.8038 19.3861 52.0901 19.0186 53.1007C18.743 54.0195 18.697 54.9842 18.8808 55.9949C18.9727 56.3624 18.9727 56.7299 18.8808 57.0974C18.8808 57.373 18.8808 57.6486 18.8808 57.9243C19.0646 58.5674 19.0186 59.2106 18.743 59.8537C18.5592 60.405 18.4674 60.9103 18.4674 61.3697C18.2836 62.1047 18.2377 62.8397 18.3295 63.5747C18.4214 64.2179 18.4674 64.907 18.4674 65.642C18.3755 66.9283 18.2836 68.1686 18.1917 69.363C18.0998 70.5574 18.008 71.7978 17.9161 73.084C17.8242 73.8191 17.7323 74.5081 17.6405 75.1513C17.5486 75.7944 17.4567 76.4835 17.3648 77.2185C17.3648 77.586 17.4108 77.9535 17.5026 78.3211C17.5945 78.5967 17.6405 78.9183 17.6405 79.2858C17.6405 80.2964 17.5945 81.353 17.5026 82.4555C17.5026 83.4662 17.4567 84.4768 17.3648 85.4875C17.2729 86.4981 17.2729 87.5088 17.3648 88.5194C17.4567 89.4382 17.4567 90.4029 17.3648 91.4136C17.2729 92.9755 17.1811 94.5374 17.0892 96.0993C17.0892 97.6612 17.1811 99.2232 17.3648 100.785C17.4567 101.244 17.5945 101.704 17.7783 102.163C17.962 102.531 17.9161 102.944 17.6405 103.404C17.5486 103.495 17.6405 103.863 17.9161 104.506C18.1917 105.149 18.3755 105.563 18.4674 105.746C18.008 106.114 17.8242 106.573 17.9161 107.125C18.008 107.676 18.1917 108.135 18.4674 108.503C18.9267 108.687 19.4321 108.595 19.9833 108.227C20.5346 108.411 20.994 108.411 21.3615 108.227C21.729 108.043 22.0506 107.906 22.3262 107.814C22.7856 107.63 23.245 107.492 23.7044 107.4C24.1638 107.4 24.6231 107.354 25.0825 107.262C26.0932 106.895 26.8741 106.665 27.4254 106.573C28.0685 106.573 28.7576 106.481 29.4926 106.298C29.952 106.114 30.3655 106.16 30.733 106.436C31.1005 106.803 31.5139 106.803 31.9733 106.436C31.7896 106.068 31.8355 105.746 32.1111 105.471C32.3868 105.195 32.5246 104.874 32.5246 104.506C32.5246 104.23 32.4327 103.955 32.249 103.679C32.1571 103.404 32.0652 103.128 31.9733 102.852C31.8815 102.669 31.8815 102.439 31.9733 102.163C32.0652 101.888 32.0652 101.612 31.9733 101.336C31.8815 100.693 31.7436 100.096 31.5599 99.5447C31.468 98.9935 31.3761 98.3963 31.2843 97.7531C31.1924 97.2937 31.1464 96.7884 31.1464 96.2371C31.2383 95.6859 31.2843 95.1806 31.2843 94.7212C31.1924 93.5268 31.0086 92.4242 30.733 91.4136C30.5492 90.3111 30.3655 89.1626 30.1817 87.9682C29.998 86.7738 29.8602 85.5794 29.7683 84.385C29.6764 83.1906 29.5845 81.9962 29.4926 80.8017C29.4008 80.3424 29.4008 79.9289 29.4926 79.5614C29.5845 79.1939 29.5845 78.7804 29.4926 78.3211C29.4008 77.8617 29.2629 77.4942 29.0792 77.2185C28.8954 76.851 28.7576 76.4376 28.6657 75.9782C28.6657 75.6107 28.7117 75.2891 28.8036 75.0135C28.8954 74.7378 28.9414 74.4622 28.9414 74.1866C29.0333 73.2678 28.9873 72.395 28.8036 71.5681C28.7117 70.7412 28.6657 69.8683 28.6657 68.9496C29.0333 68.3064 29.0792 67.7092 28.8036 67.158C28.5279 66.5148 28.482 65.8717 28.6657 65.2285C28.482 63.391 28.2523 62.0588 27.9767 61.2319C27.7929 60.3131 27.701 59.3943 27.701 58.4755C27.6092 57.9243 27.6092 57.373 27.701 56.8217C27.8848 56.2705 27.9307 55.7192 27.8388 55.168C27.8388 52.0441 27.7929 48.9662 27.701 45.9343C27.6092 42.8104 27.3335 39.7326 26.8741 36.7006C26.6904 35.6899 26.6444 34.6793 26.7363 33.6686C26.8282 32.5661 26.7823 31.5095 26.5985 30.4989C26.5066 29.3963 26.4147 28.7073 26.3229 28.4316C26.231 28.0641 26.1391 27.6507 26.0472 27.1913C26.1391 25.8131 26.0932 24.8484 25.9094 24.2972C25.7257 23.654 25.6338 23.0109 25.6338 22.3677C25.7257 21.449 25.6797 20.9436 25.496 20.8517C25.4041 20.668 25.3582 20.4842 25.3582 20.3005C25.1744 18.3711 24.8988 16.5335 24.5313 14.7878C24.3475 14.3285 24.1638 13.8691 23.98 13.4097C23.7962 12.9503 23.6584 12.4909 23.5666 12.0315C23.7503 11.0209 23.7044 10.2858 23.4287 9.82646C23.245 9.36708 23.199 8.90769 23.2909 8.4483H20.6724ZM65.6005 70.3277C65.6005 70.0521 65.7842 69.7305 66.1517 69.363C66.6111 68.9955 66.9327 68.7199 67.1164 68.5361C68.1271 67.8011 68.908 67.3417 69.4593 67.158C69.6431 66.2392 70.0106 65.596 70.5618 65.2285C71.205 64.861 71.4347 64.0801 71.2509 62.8857C71.5265 62.7019 71.8022 62.5181 72.0778 62.3344C72.3534 62.1506 72.5831 61.875 72.7669 61.5075C72.8588 60.9562 73.0885 60.3131 73.456 59.5781C73.8235 58.7512 74.191 57.9702 74.5585 57.2352C74.926 56.4083 75.2476 55.6273 75.5232 54.8923C75.8907 54.1573 76.1204 53.5601 76.2123 53.1007C76.3042 52.3657 76.2123 51.5847 75.9367 50.7578C75.661 49.8391 75.5692 49.0122 75.661 48.2772C75.661 48.0015 75.707 47.7259 75.7988 47.4503C75.9826 47.1746 76.1204 46.899 76.2123 46.6234C76.0285 45.429 75.8448 44.5102 75.661 43.867C75.5692 43.2239 75.4773 42.5348 75.3854 41.7998C75.5692 40.5135 75.4313 39.1354 74.972 37.6653C74.6044 36.1034 74.4207 34.8171 74.4207 33.8065C73.6857 32.8877 73.0425 31.923 72.4913 30.9123C71.94 29.8098 71.205 28.891 70.2862 28.156C70.1943 27.421 69.9187 26.8238 69.4593 26.3644C69.0918 25.905 68.8621 25.3078 68.7702 24.5728C68.0352 24.1134 67.5299 23.5162 67.2543 22.7812C66.9786 22.0462 66.5192 21.449 65.8761 20.9896C64.9573 20.6221 64.3601 20.3464 64.0845 20.1627C63.9007 19.887 63.671 19.6573 63.3954 19.4736C62.6604 19.1061 61.9254 18.7386 61.1903 18.3711C60.4553 17.9117 59.7203 17.5901 58.9853 17.4063C57.9746 17.0388 57.3315 16.8091 57.0559 16.7173C56.8721 16.5335 56.6424 16.3498 56.3668 16.166C56.0911 15.9822 55.7696 15.8904 55.4021 15.8904C55.0346 15.8904 54.667 15.7985 54.2995 15.6147C53.5645 15.3391 52.9214 15.0175 52.3701 14.65C51.8188 14.2825 51.1298 14.1906 50.3029 14.3744C49.7516 13.8231 49.0625 13.5016 48.2356 13.4097C47.5006 13.3178 46.8115 13.18 46.1684 12.9962C45.0659 12.7206 44.1011 12.399 43.2743 12.0315C42.5392 11.664 41.5286 11.5721 40.2423 11.7559C39.2316 11.1127 38.2669 10.6534 37.3482 10.3777C36.5213 10.1021 35.5106 10.0562 34.3162 10.2399C33.5812 9.68865 32.7084 9.41301 31.6977 9.41301C30.7789 9.41301 29.8602 9.36708 28.9414 9.2752C28.482 10.1021 28.3442 10.8371 28.5279 11.4803C28.8036 12.0315 29.0333 12.7206 29.217 13.5475C29.3089 14.0069 29.3089 14.5122 29.217 15.0635C29.217 15.5229 29.3089 15.9822 29.4926 16.4416C29.952 17.2685 30.1358 17.8198 30.0439 18.0954C29.952 18.3711 29.9061 18.6467 29.9061 18.9223C30.1817 19.933 30.3655 20.9436 30.4574 21.9543C30.5492 22.9649 30.6411 24.0215 30.733 25.124C30.9167 26.2266 31.0546 27.2832 31.1464 28.2938C31.2383 29.2126 31.3761 29.7639 31.5599 29.9476C31.1005 31.7852 31.0086 33.5308 31.2843 35.1846C31.5599 36.8384 31.6977 38.5381 31.6977 40.2838C31.6058 41.662 31.6058 42.7645 31.6977 43.5914C31.7896 44.4183 31.8815 45.1993 31.9733 45.9343C32.0652 46.2099 32.0652 46.5315 31.9733 46.899C31.9733 47.1746 31.9733 47.4503 31.9733 47.7259C32.249 48.5528 32.3408 49.15 32.249 49.5175C32.249 49.7931 32.3408 50.1147 32.5246 50.4822C32.249 51.1253 32.1571 51.5388 32.249 51.7226C32.4327 51.9063 32.5246 52.1819 32.5246 52.5494C32.5246 53.652 32.4327 54.7545 32.249 55.857C32.0652 56.9596 32.0652 58.108 32.249 59.3024C32.3408 59.5781 32.4787 60.1753 32.6624 61.094C32.938 62.0128 33.0759 62.5181 33.0759 62.61C32.8921 63.1613 32.8462 63.6666 32.938 64.126C33.1218 64.5854 33.2596 64.9529 33.3515 65.2285C33.5352 66.9742 33.5812 68.4902 33.4893 69.7765C33.4893 70.9709 33.5812 72.1653 33.7649 73.3597C34.7756 73.8191 35.7862 74.0488 36.7969 74.0488C37.8994 73.9569 38.956 74.0028 39.9667 74.1866C40.4261 74.2785 40.7936 74.4163 41.0692 74.6C41.4367 74.7838 41.8502 74.8757 42.3095 74.8757C42.9527 74.9675 43.5499 74.9216 44.1011 74.7378C44.6524 74.4622 45.2496 74.2785 45.8928 74.1866C46.5359 74.0947 47.179 74.0947 47.8222 74.1866C48.4653 74.2785 49.1085 74.2785 49.7516 74.1866C50.1191 74.0947 50.4407 74.0028 50.7163 73.9109C51.0838 73.7272 51.4513 73.6353 51.8188 73.6353C52.8295 73.7272 53.3808 73.7272 53.4726 73.6353C53.6564 73.5434 53.8402 73.4516 54.0239 73.3597C54.2995 73.2678 54.5752 73.2678 54.8508 73.3597C55.1264 73.4516 55.4021 73.4516 55.6777 73.3597C57.3315 72.7165 58.6637 72.349 59.6744 72.2571C60.7769 72.1653 61.8335 71.9356 62.8441 71.5681C63.3035 71.3843 63.7629 71.1087 64.2223 70.7412C64.6817 70.3737 65.1411 70.2358 65.6005 70.3277Z" fill="#434343"/>
<path d="M42.5918 79.3177C42.5918 79.6852 42.5918 80.1446 42.5918 80.6959C42.5918 81.1553 42.5 81.4768 42.3162 81.6606C42.6837 82.7631 42.9134 83.8657 43.0053 84.9682C43.0972 85.9788 43.3728 86.7598 43.8322 87.3111C43.4647 87.6786 43.3728 88.0461 43.5566 88.4136C43.7403 88.7811 43.8322 89.1945 43.8322 89.6539V91.4455C43.9241 91.4455 44.0619 91.859 44.2456 92.6859C44.5213 93.4209 44.6591 93.8803 44.6591 94.064C44.6591 94.8909 44.6591 95.6719 44.6591 96.4069C44.751 97.1419 44.9347 97.877 45.2103 98.612C45.3941 99.0714 45.6238 99.3929 45.8994 99.5767C46.1751 99.6686 46.3588 99.8523 46.4507 100.128C46.6344 100.863 46.7263 101.552 46.7263 102.195C46.8182 102.838 46.956 103.527 47.1398 104.262C47.9667 104.538 48.7017 104.492 49.3448 104.125C50.0798 103.757 50.8149 103.527 51.5499 103.436C52.0093 103.436 52.5605 103.573 53.2037 103.849C53.8468 104.125 54.3062 103.987 54.5818 103.436C55.96 104.171 57.1085 104.952 58.0272 105.778C57.9354 106.238 57.7516 106.605 57.476 106.881C57.2922 107.248 57.1085 107.662 56.9247 108.121C56.2816 108.121 55.6844 108.213 55.1331 108.397C54.5818 108.581 53.9846 108.673 53.3415 108.673C52.0552 108.489 51.1364 108.443 50.5852 108.535C50.1258 108.718 49.6664 108.856 49.207 108.948C47.9207 109.04 46.6344 109.086 45.3482 109.086C44.0619 109.178 42.7756 109.132 41.4893 108.948C41.0299 108.856 40.6165 108.718 40.249 108.535C39.8815 108.351 39.468 108.213 39.0086 108.121C36.8036 107.846 34.7363 108.121 32.8069 108.948C32.4394 109.132 31.7962 109.224 30.8775 109.224C30.0506 109.316 29.1777 109.408 28.259 109.499C27.4321 109.591 26.6511 109.729 25.9161 109.913C25.1811 110.097 24.7676 110.372 24.6757 110.74C23.4813 110.556 22.7923 110.556 22.6085 110.74C22.4248 110.924 22.1491 111.061 21.7816 111.153C21.0466 111.337 20.4034 111.475 19.8522 111.567C19.3009 111.659 18.6578 111.796 17.9228 111.98C17.1877 112.164 16.5905 112.44 16.1311 112.807C15.7636 113.175 15.1664 113.22 14.3395 112.945C13.5126 112.761 13.0533 112.256 12.9614 111.429C12.9614 110.602 13.0992 109.821 13.3748 109.086C14.5692 108.535 15.8096 108.121 17.0959 107.846C18.474 107.57 19.7603 107.157 20.9547 106.605C21.1385 105.319 21.0925 104.033 20.8169 102.746C20.6331 101.46 20.5413 100.174 20.5413 98.8876C20.5413 98.5201 20.5872 98.1985 20.6791 97.9229C20.771 97.6473 20.8169 97.3716 20.8169 97.096C20.8169 95.5341 20.771 94.0181 20.6791 92.5481C20.6791 90.9862 20.725 89.4242 20.8169 87.8623C20.9088 86.8517 20.8628 86.2545 20.6791 86.0707C20.5872 85.7951 20.5413 85.5194 20.5413 85.2438C20.725 84.2332 20.771 83.636 20.6791 83.4522C20.5872 83.1766 20.5413 82.9469 20.5413 82.7631C20.3575 81.1093 20.3575 80.1446 20.5413 79.869C20.8169 79.5015 20.9547 78.9962 20.9547 78.353C21.0466 77.9855 21.0466 77.6639 20.9547 77.3883C20.8628 77.1127 20.8169 76.837 20.8169 76.5614C20.8169 74.2645 20.9547 72.0135 21.2303 69.8084C21.506 67.5115 21.6897 65.2145 21.7816 62.9176C21.7816 62.2745 21.7357 61.6773 21.6438 61.126C21.6438 60.4829 21.6897 59.7938 21.7816 59.0588C21.8735 58.4156 22.0113 57.8184 22.1951 57.2672C22.3788 56.7159 22.5166 56.1187 22.6085 55.4755C22.6085 55.0162 22.5626 54.5108 22.4707 53.9596C22.3788 53.4083 22.4707 52.903 22.7463 52.4436C22.3788 51.8923 22.3329 51.2492 22.6085 50.5142C22.8841 49.6873 22.7923 49.0441 22.3329 48.5847C22.5166 48.3091 22.6085 47.9875 22.6085 47.62C22.7004 47.2525 22.8382 46.9769 23.022 46.7931C22.8382 45.7825 22.8382 44.8637 23.022 44.0368C23.2057 43.2099 23.2976 42.3371 23.2976 41.4183C23.2057 40.4076 23.2057 39.7645 23.2976 39.4889C23.4813 39.2132 23.5732 38.8917 23.5732 38.5242C23.5732 38.1567 23.5273 37.8351 23.4354 37.5594C23.3435 37.1919 23.2976 36.8244 23.2976 36.4569C23.2976 35.63 23.3435 34.8031 23.4354 33.9762C23.6192 33.1493 23.757 32.2765 23.8488 31.3577C23.8488 30.8983 23.8029 30.393 23.711 29.8417C23.711 29.2905 23.757 28.7852 23.8488 28.3258C23.9407 27.407 24.0785 26.5342 24.2623 25.7073C24.4461 24.8804 24.5839 24.0075 24.6757 23.0888C24.7676 21.7106 24.7676 20.6999 24.6757 20.0568C24.5839 19.4137 24.492 18.7246 24.4001 17.9896C24.3082 17.7139 24.2623 17.3924 24.2623 17.0249C24.3542 16.6573 24.4001 16.2898 24.4001 15.9223C24.1245 14.2685 23.9867 12.8904 23.9867 11.7878C24.0785 10.5934 23.9407 9.39903 23.5732 8.20462C23.757 7.4696 23.8029 6.96428 23.711 6.68865C23.6192 6.32114 23.3895 5.81581 23.022 5.17267C22.6544 5.08079 22.0113 5.08079 21.0925 5.17267C20.2656 5.26455 19.3928 5.40236 18.474 5.58612C17.5552 5.678 16.7284 5.76987 15.9933 5.86175C15.2583 5.95363 14.7989 5.99957 14.6152 5.99957C13.6045 5.63206 13.0992 4.94298 13.0992 3.93232C13.0992 3.47294 13.1911 3.10543 13.3748 2.8298C13.5586 2.55416 13.6964 2.23259 13.7883 1.86508C14.2477 1.86508 14.6152 1.81914 14.8908 1.72727C15.2583 1.54351 15.6718 1.4057 16.1311 1.31382C17.0499 1.31382 17.5552 1.26788 17.6471 1.176C17.8309 0.992248 18.0146 0.854432 18.1984 0.762555C18.474 0.762555 18.7037 0.808493 18.8875 0.900371C19.1631 0.992248 19.4387 1.03819 19.7144 1.03819C20.1738 1.03819 20.5872 0.992248 20.9547 0.900371C21.3222 0.808493 21.6897 0.716616 22.0572 0.624739C22.5166 1.08413 23.2057 1.22194 24.1245 1.03819C25.1351 0.762555 25.962 0.624739 26.6052 0.624739C27.0646 0.624739 27.6618 0.624739 28.3968 0.624739C29.2237 0.624739 30.0506 0.670677 30.8775 0.762555C31.7962 0.854432 32.6231 0.992248 33.3582 1.176C34.0932 1.35976 34.5985 1.58945 34.8741 1.86508C35.4254 1.58945 36.0226 1.45164 36.6657 1.45164C37.4008 1.35976 38.0898 1.22194 38.733 1.03819C38.9167 1.4057 39.1464 1.58945 39.4221 1.58945C39.6977 1.49757 39.9733 1.49757 40.249 1.58945C40.7084 1.77321 41.1218 1.95696 41.4893 2.14072C41.8568 2.32447 42.3162 2.46229 42.8675 2.55416C43.6944 2.73792 44.2456 2.78386 44.5213 2.69198C44.7969 2.6001 45.0725 2.55416 45.3482 2.55416C45.9913 2.73792 46.5885 3.01355 47.1398 3.38106C47.7829 3.65669 48.3801 3.93232 48.9314 4.20796C49.3908 4.39171 49.7583 4.48359 50.0339 4.48359C50.4014 4.39171 50.8149 4.34577 51.2743 4.34577C52.3768 4.34577 53.1118 4.52953 53.4793 4.89704C53.9387 5.26455 54.3981 5.54018 54.8575 5.72393C55.5006 5.90769 56.1438 5.99957 56.7869 5.99957C57.43 5.90769 57.9813 6.13738 58.4407 6.68865C58.8082 6.78052 59.0838 6.73459 59.2676 6.55083C59.4513 6.36708 59.727 6.32114 60.0945 6.41301C60.2782 6.68865 60.8295 7.01022 61.7483 7.37773C62.7589 7.74524 63.8155 8.15868 64.918 8.61807C66.0206 8.98558 67.0312 9.39903 67.95 9.85842C68.9606 10.3178 69.5579 10.7313 69.7416 11.0988C71.0279 11.0069 71.9926 11.2366 72.6357 11.7878C73.2789 12.3391 74.1058 12.7066 75.1164 12.8904C75.9433 14.1767 76.8621 15.3711 77.8728 16.4736C78.9753 17.4842 79.94 18.5868 80.7669 19.7812C80.9506 19.9649 81.0885 20.1946 81.1803 20.4703C81.2722 20.7459 81.41 20.9756 81.5938 21.1593C82.7882 22.17 83.4773 23.0428 83.661 23.7778C83.8448 24.421 84.2582 24.8804 84.9014 25.156C85.0851 26.1667 85.4526 26.9476 86.0039 27.4989C86.647 28.4176 86.9227 28.9689 86.8308 29.1527C86.7389 29.2445 86.693 29.3824 86.693 29.5661C87.2442 30.4849 87.4739 31.128 87.3821 31.4955C87.2902 31.8631 87.3361 32.2306 87.5199 32.5981C87.7036 33.3331 87.9333 33.9303 88.209 34.3897C88.5765 34.8491 88.6683 35.5381 88.4846 36.4569C88.3008 36.9163 88.2549 37.5594 88.3468 38.3863C88.4387 39.1214 88.5305 39.9023 88.6224 40.7292C88.7143 41.5561 88.7602 42.3371 88.7602 43.0721C88.7602 43.7152 88.6683 44.0827 88.4846 44.1746C88.5765 44.4503 88.6224 44.7718 88.6224 45.1393C88.7143 45.415 88.944 45.5987 89.3115 45.6906C88.944 46.4256 88.7602 47.2525 88.7602 48.1713C88.7602 48.9982 88.8521 49.8251 89.0359 50.652C88.3008 51.387 88.0252 52.3058 88.209 53.4083C88.1171 53.5921 87.8874 54.0974 87.5199 54.9243C87.1524 55.7512 86.7389 56.7159 86.2795 57.8184C85.912 58.8291 85.5445 59.7938 85.177 60.7126C84.8095 61.5394 84.6257 62.0448 84.6257 62.2285C84.1664 62.3204 83.8448 62.596 83.661 63.0554C83.4773 63.5148 83.2935 63.9742 83.1098 64.4336C82.926 64.4336 82.6504 64.6173 82.2829 64.9849C82.0072 65.2605 81.6857 65.628 81.3182 66.0874C80.9506 66.4549 80.6291 66.8683 80.3534 67.3277C80.0778 67.6952 79.8941 67.9249 79.8022 68.0168C79.2509 68.2924 78.6997 68.5681 78.1484 68.8437C77.5971 69.0275 77.1837 69.4409 76.908 70.084C76.5405 70.084 76.173 70.2219 75.8055 70.4975C75.438 70.6812 75.1164 70.9109 74.8408 71.1866C74.5652 71.4622 74.2895 71.6919 74.0139 71.8757C73.7383 72.0594 73.4626 72.0594 73.187 71.8757C72.1764 72.335 71.4873 72.5647 71.1198 72.5647C70.8441 72.4729 70.4766 72.5188 70.0172 72.7026C69.3741 72.8863 68.7769 73.1619 68.2256 73.5294C67.6744 73.8051 67.0772 74.0348 66.434 74.2185C66.1584 74.3104 65.8368 74.3563 65.4693 74.3563C65.1937 74.2645 64.918 74.2185 64.6424 74.2185C64.3668 74.3104 64.0911 74.4023 63.8155 74.4942C63.6318 74.586 63.4021 74.6779 63.1264 74.7698C62.9427 74.6779 62.6211 74.632 62.1617 74.632C61.7023 74.632 61.197 74.6779 60.6457 74.7698C60.0945 74.7698 59.5892 74.8157 59.1298 74.9076C58.6704 74.9995 58.3029 75.0454 58.0272 75.0454C57.6597 75.0454 57.3382 75.1373 57.0625 75.3211C56.7869 75.4129 56.5113 75.4589 56.2356 75.4589C55.96 75.5508 55.6844 75.5508 55.4087 75.4589C55.1331 75.367 54.8575 75.3211 54.5818 75.3211C53.9387 75.2292 53.3415 75.3211 52.7902 75.5967C52.239 75.7804 51.6418 75.9183 50.9986 76.0101C50.4474 76.102 49.8961 76.102 49.3448 76.0101C48.7936 75.9183 48.2423 76.0101 47.691 76.2858C47.2316 76.0101 46.5885 75.8264 45.7616 75.7345C44.9347 75.5508 44.1538 75.5508 43.4187 75.7345C42.7756 75.9183 42.3162 76.2858 42.0406 76.837C41.7649 77.3883 41.9487 78.2152 42.5918 79.3177ZM28.6724 5.4483C28.8562 5.90769 28.8102 6.22926 28.5346 6.41301C28.3508 6.59677 28.259 6.78052 28.259 6.96428C28.259 7.14803 28.259 7.56148 28.259 8.20462C28.3508 8.75589 28.3968 9.39903 28.3968 10.134C28.4887 10.7772 28.5346 11.4203 28.5346 12.0635C28.6265 12.6147 28.6724 12.9822 28.6724 13.166L28.948 14.682C29.0399 14.9576 29.0399 15.2332 28.948 15.5089C28.948 15.6926 28.948 15.9223 28.948 16.198C28.948 16.4736 28.994 16.9789 29.0859 17.7139C29.1777 18.449 29.2237 19.184 29.2237 19.919C29.3156 20.654 29.3156 21.3431 29.2237 21.9862C29.1318 22.6294 28.948 22.9969 28.6724 23.0888C28.7643 24.2832 28.7643 25.4316 28.6724 26.5342C28.6724 27.6367 28.4427 28.6473 27.9833 29.5661C28.0752 30.9443 28.0752 32.0927 27.9833 33.0115C27.9833 33.8384 27.9833 34.7572 27.9833 35.7678C27.9833 36.3191 28.0293 36.8704 28.1211 37.4216C28.213 37.881 28.259 38.3404 28.259 38.7998C27.7077 40.3617 27.478 41.4183 27.5699 41.9696C27.6618 42.5208 27.4321 43.164 26.8808 43.899C27.4321 44.1746 27.6158 44.5421 27.4321 45.0015C27.2483 45.4609 27.1564 45.8744 27.1564 46.2419C27.4321 47.8038 27.3861 49.0901 27.0186 50.1007C26.743 51.0195 26.697 51.9842 26.8808 52.9949C26.9727 53.3624 26.9727 53.7299 26.8808 54.0974C26.8808 54.373 26.8808 54.6486 26.8808 54.9243C27.0646 55.5674 27.0186 56.2106 26.743 56.8537C26.5592 57.405 26.4674 57.9103 26.4674 58.3697C26.2836 59.1047 26.2377 59.8397 26.3295 60.5747C26.4214 61.2179 26.4674 61.907 26.4674 62.642C26.3755 63.9283 26.2836 65.1686 26.1917 66.363C26.0998 67.5574 26.008 68.7978 25.9161 70.084C25.8242 70.8191 25.7323 71.5081 25.6405 72.1513C25.5486 72.7944 25.4567 73.4835 25.3648 74.2185C25.3648 74.586 25.4108 74.9535 25.5026 75.3211C25.5945 75.5967 25.6405 75.9183 25.6405 76.2858C25.6405 77.2964 25.5945 78.353 25.5026 79.4555C25.5026 80.4662 25.4567 81.4768 25.3648 82.4875C25.2729 83.4981 25.2729 84.5088 25.3648 85.5194C25.4567 86.4382 25.4567 87.4029 25.3648 88.4136C25.2729 89.9755 25.1811 91.5374 25.0892 93.0993C25.0892 94.6612 25.1811 96.2232 25.3648 97.7851C25.4567 98.2445 25.5945 98.7039 25.7783 99.1632C25.962 99.5307 25.9161 99.9442 25.6405 100.404C25.5486 100.495 25.6405 100.863 25.9161 101.506C26.1917 102.149 26.3755 102.563 26.4674 102.746C26.008 103.114 25.8242 103.573 25.9161 104.125C26.008 104.676 26.1917 105.135 26.4674 105.503C26.9267 105.687 27.4321 105.595 27.9833 105.227C28.5346 105.411 28.994 105.411 29.3615 105.227C29.729 105.043 30.0506 104.906 30.3262 104.814C30.7856 104.63 31.245 104.492 31.7044 104.4C32.1638 104.4 32.6231 104.354 33.0825 104.262C34.0932 103.895 34.8741 103.665 35.4254 103.573C36.0685 103.573 36.7576 103.481 37.4926 103.298C37.952 103.114 38.3655 103.16 38.733 103.436C39.1005 103.803 39.5139 103.803 39.9733 103.436C39.7896 103.068 39.8355 102.746 40.1111 102.471C40.3868 102.195 40.5246 101.874 40.5246 101.506C40.5246 101.23 40.4327 100.955 40.249 100.679C40.1571 100.404 40.0652 100.128 39.9733 99.8523C39.8815 99.6686 39.8815 99.4389 39.9733 99.1632C40.0652 98.8876 40.0652 98.612 39.9733 98.3363C39.8815 97.6932 39.7436 97.096 39.5599 96.5447C39.468 95.9935 39.3761 95.3963 39.2843 94.7531C39.1924 94.2937 39.1464 93.7884 39.1464 93.2371C39.2383 92.6859 39.2843 92.1806 39.2843 91.7212C39.1924 90.5268 39.0086 89.4242 38.733 88.4136C38.5492 87.3111 38.3655 86.1626 38.1817 84.9682C37.998 83.7738 37.8602 82.5794 37.7683 81.385C37.6764 80.1906 37.5845 78.9962 37.4926 77.8017C37.4008 77.3424 37.4008 76.9289 37.4926 76.5614C37.5845 76.1939 37.5845 75.7804 37.4926 75.3211C37.4008 74.8617 37.2629 74.4942 37.0792 74.2185C36.8954 73.851 36.7576 73.4376 36.6657 72.9782C36.6657 72.6107 36.7117 72.2891 36.8036 72.0135C36.8954 71.7378 36.9414 71.4622 36.9414 71.1866C37.0333 70.2678 36.9873 69.395 36.8036 68.5681C36.7117 67.7412 36.6657 66.8683 36.6657 65.9496C37.0333 65.3064 37.0792 64.7092 36.8036 64.158C36.5279 63.5148 36.482 62.8717 36.6657 62.2285C36.482 60.391 36.2523 59.0588 35.9767 58.2319C35.7929 57.3131 35.701 56.3943 35.701 55.4755C35.6092 54.9243 35.6092 54.373 35.701 53.8217C35.8848 53.2705 35.9307 52.7192 35.8388 52.168C35.8388 49.0441 35.7929 45.9662 35.701 42.9343C35.6092 39.8104 35.3335 36.7326 34.8741 33.7006C34.6904 32.6899 34.6444 31.6793 34.7363 30.6686C34.8282 29.5661 34.7823 28.5095 34.5985 27.4989C34.5066 26.3963 34.4147 25.7073 34.3229 25.4316C34.231 25.0641 34.1391 24.6507 34.0472 24.1913C34.1391 22.8131 34.0932 21.8484 33.9094 21.2972C33.7257 20.654 33.6338 20.0109 33.6338 19.3677C33.7257 18.449 33.6797 17.9436 33.496 17.8517C33.4041 17.668 33.3582 17.4842 33.3582 17.3005C33.1744 15.3711 32.8988 13.5335 32.5313 11.7878C32.3475 11.3285 32.1638 10.8691 31.98 10.4097C31.7962 9.95029 31.6584 9.49091 31.5666 9.03152C31.7503 8.02087 31.7044 7.28585 31.4287 6.82646C31.245 6.36708 31.199 5.90769 31.2909 5.4483H28.6724ZM73.6005 67.3277C73.6005 67.0521 73.7842 66.7305 74.1517 66.363C74.6111 65.9955 74.9327 65.7199 75.1164 65.5361C76.1271 64.8011 76.908 64.3417 77.4593 64.158C77.6431 63.2392 78.0106 62.596 78.5618 62.2285C79.205 61.861 79.4347 61.0801 79.2509 59.8857C79.5265 59.7019 79.8022 59.5181 80.0778 59.3344C80.3534 59.1506 80.5831 58.875 80.7669 58.5075C80.8588 57.9562 81.0885 57.3131 81.456 56.5781C81.8235 55.7512 82.191 54.9702 82.5585 54.2352C82.926 53.4083 83.2476 52.6273 83.5232 51.8923C83.8907 51.1573 84.1204 50.5601 84.2123 50.1007C84.3042 49.3657 84.2123 48.5847 83.9367 47.7578C83.661 46.8391 83.5692 46.0122 83.661 45.2772C83.661 45.0015 83.707 44.7259 83.7988 44.4503C83.9826 44.1746 84.1204 43.899 84.2123 43.6234C84.0285 42.429 83.8448 41.5102 83.661 40.867C83.5692 40.2239 83.4773 39.5348 83.3854 38.7998C83.5692 37.5135 83.4313 36.1354 82.972 34.6653C82.6044 33.1034 82.4207 31.8171 82.4207 30.8065C81.6857 29.8877 81.0425 28.923 80.4913 27.9123C79.94 26.8098 79.205 25.891 78.2862 25.156C78.1943 24.421 77.9187 23.8238 77.4593 23.3644C77.0918 22.905 76.8621 22.3078 76.7702 21.5728C76.0352 21.1134 75.5299 20.5162 75.2543 19.7812C74.9786 19.0462 74.5192 18.449 73.8761 17.9896C72.9573 17.6221 72.3601 17.3464 72.0845 17.1627C71.9007 16.887 71.671 16.6573 71.3954 16.4736C70.6604 16.1061 69.9254 15.7386 69.1903 15.3711C68.4553 14.9117 67.7203 14.5901 66.9853 14.4063C65.9746 14.0388 65.3315 13.8091 65.0559 13.7173C64.8721 13.5335 64.6424 13.3498 64.3668 13.166C64.0911 12.9822 63.7696 12.8904 63.4021 12.8904C63.0346 12.8904 62.667 12.7985 62.2995 12.6147C61.5645 12.3391 60.9214 12.0175 60.3701 11.65C59.8188 11.2825 59.1298 11.1906 58.3029 11.3744C57.7516 10.8231 57.0625 10.5016 56.2356 10.4097C55.5006 10.3178 54.8115 10.18 54.1684 9.99623C53.0659 9.7206 52.1011 9.39903 51.2743 9.03152C50.5392 8.66401 49.5286 8.57213 48.2423 8.75589C47.2316 8.11275 46.2669 7.65336 45.3482 7.37773C44.5213 7.10209 43.5106 7.05616 42.3162 7.23991C41.5812 6.68865 40.7084 6.41301 39.6977 6.41301C38.7789 6.41301 37.8602 6.36708 36.9414 6.2752C36.482 7.10209 36.3442 7.83711 36.5279 8.48026C36.8036 9.03152 37.0333 9.7206 37.217 10.5475C37.3089 11.0069 37.3089 11.5122 37.217 12.0635C37.217 12.5229 37.3089 12.9822 37.4926 13.4416C37.952 14.2685 38.1358 14.8198 38.0439 15.0954C37.952 15.3711 37.9061 15.6467 37.9061 15.9223C38.1817 16.933 38.3655 17.9436 38.4574 18.9543C38.5492 19.9649 38.6411 21.0215 38.733 22.124C38.9167 23.2266 39.0546 24.2832 39.1464 25.2938C39.2383 26.2126 39.3761 26.7639 39.5599 26.9476C39.1005 28.7852 39.0086 30.5308 39.2843 32.1846C39.5599 33.8384 39.6977 35.5381 39.6977 37.2838C39.6058 38.662 39.6058 39.7645 39.6977 40.5914C39.7896 41.4183 39.8815 42.1993 39.9733 42.9343C40.0652 43.2099 40.0652 43.5315 39.9733 43.899C39.9733 44.1746 39.9733 44.4503 39.9733 44.7259C40.249 45.5528 40.3408 46.15 40.249 46.5175C40.249 46.7931 40.3408 47.1147 40.5246 47.4822C40.249 48.1253 40.1571 48.5388 40.249 48.7226C40.4327 48.9063 40.5246 49.1819 40.5246 49.5494C40.5246 50.652 40.4327 51.7545 40.249 52.857C40.0652 53.9596 40.0652 55.108 40.249 56.3024C40.3408 56.5781 40.4787 57.1753 40.6624 58.094C40.938 59.0128 41.0759 59.5181 41.0759 59.61C40.8921 60.1613 40.8462 60.6666 40.938 61.126C41.1218 61.5854 41.2596 61.9529 41.3515 62.2285C41.5352 63.9742 41.5812 65.4902 41.4893 66.7765C41.4893 67.9709 41.5812 69.1653 41.7649 70.3597C42.7756 70.8191 43.7862 71.0488 44.7969 71.0488C45.8994 70.9569 46.956 71.0028 47.9667 71.1866C48.4261 71.2785 48.7936 71.4163 49.0692 71.6C49.4367 71.7838 49.8502 71.8757 50.3095 71.8757C50.9527 71.9675 51.5499 71.9216 52.1011 71.7378C52.6524 71.4622 53.2496 71.2785 53.8928 71.1866C54.5359 71.0947 55.179 71.0947 55.8222 71.1866C56.4653 71.2785 57.1085 71.2785 57.7516 71.1866C58.1191 71.0947 58.4407 71.0028 58.7163 70.9109C59.0838 70.7272 59.4513 70.6353 59.8188 70.6353C60.8295 70.7272 61.3808 70.7272 61.4726 70.6353C61.6564 70.5434 61.8402 70.4516 62.0239 70.3597C62.2995 70.2678 62.5752 70.2678 62.8508 70.3597C63.1264 70.4516 63.4021 70.4516 63.6777 70.3597C65.3315 69.7165 66.6637 69.349 67.6744 69.2571C68.7769 69.1653 69.8335 68.9356 70.8441 68.5681C71.3035 68.3843 71.7629 68.1087 72.2223 67.7412C72.6817 67.3737 73.1411 67.2358 73.6005 67.3277Z" fill="#FFFC52"/>
</svg>
